<svg width="70" height="105" viewBox="0 0 70 105" fill="none" xmlns="http://www.w3.org/2000/svg">
<path d="M43.088 90.189V21.4669C61.2571 39.9377 66.8609 51.7138 68.0188 56.0599C73.8803 78.0618 53.2413 92.0904 43.088 90.189Z" fill="#D60004"/>
<path d="M43.111 0V21.7519C26.5689 36.7903 17.868 52.9028 16.7939 60.422C14.377 77.3402 30.7581 89.156 43.111 89.9616V105C29.6838 104.194 18.7436 97.3502 15.249 94.3548C-0.770655 80.6238 -2.72335 65.8986 2.76818 51.6705C7.63252 39.0674 31.2057 10.9207 43.111 0Z" fill="#FE4A4D"/>
<path d="M42.8423 51.5602V73.0436C36.9098 73.0436 32.1006 68.2343 32.1006 62.3019C32.1006 56.3694 36.9098 51.5602 42.8423 51.5602Z" fill="#FE4A4D"/>
<path d="M42.8423 51.5602C48.7748 51.5602 53.584 56.3694 53.584 62.3019C53.584 68.2343 48.7748 73.0436 42.8423 73.0436V51.5602Z" fill="#AD0101"/>
</svg>
