<svg width="350" height="350" viewBox="0 0 350 350" fill="none" xmlns="http://www.w3.org/2000/svg">
<path d="M312.431 101.703C312.431 101.703 256.151 20.678 185.885 12.103C123.858 4.487 66.283 34.153 58.268 98.245C55.412 121.1 50.33 146.349 41.3 167.181C31.171 190.547 13.888 210 27.125 254.919C40.362 299.838 96.264 340.403 136.899 340.319C177.534 340.235 215.705 303.296 247.198 269.703C278.691 236.11 378.98 204.519 312.431 101.703Z" fill="#9A1115"/>
<path opacity="0.7" d="M312.431 101.703C312.431 101.703 256.151 20.678 185.885 12.103C123.858 4.487 66.283 34.153 58.268 98.245C55.412 121.1 50.33 146.349 41.3 167.181C31.171 190.547 13.888 210 27.125 254.919C40.362 299.838 96.264 340.403 136.899 340.319C177.534 340.235 215.705 303.296 247.198 269.703C278.691 236.11 378.98 204.519 312.431 101.703Z" fill="white"/>
<g opacity="0.3">
<path d="M86.716 124.341H34.167L34.699 114.198H87.248L86.716 124.341Z" stroke="black" stroke-width="0.7" stroke-linecap="round" stroke-linejoin="round"/>
<path d="M86.716 138.544H34.167L34.699 128.401H87.248L86.716 138.544Z" stroke="black" stroke-width="0.7" stroke-linecap="round" stroke-linejoin="round"/>
<path d="M86.716 152.747H34.167L34.699 142.604H87.248L86.716 152.747Z" stroke="black" stroke-width="0.7" stroke-linecap="round" stroke-linejoin="round"/>
<path d="M86.716 166.95H34.167L34.699 156.807H87.248L86.716 166.95Z" stroke="black" stroke-width="0.7" stroke-linecap="round" stroke-linejoin="round"/>
<path d="M86.716 181.16H34.167L34.699 171.01H87.248L86.716 181.16Z" stroke="black" stroke-width="0.7" stroke-linecap="round" stroke-linejoin="round"/>
<path d="M86.716 195.363H34.167L34.699 185.213H87.248L86.716 195.363Z" stroke="black" stroke-width="0.7" stroke-linecap="round" stroke-linejoin="round"/>
<path d="M86.716 209.566H34.167L34.699 199.416H87.248L86.716 209.566Z" stroke="black" stroke-width="0.7" stroke-linecap="round" stroke-linejoin="round"/>
<path d="M86.716 223.769H34.167L34.699 213.619H87.248L86.716 223.769Z" stroke="black" stroke-width="0.7" stroke-linecap="round" stroke-linejoin="round"/>
<path d="M86.716 237.972H34.167L34.699 227.822H87.248L86.716 237.972Z" stroke="black" stroke-width="0.7" stroke-linecap="round" stroke-linejoin="round"/>
<path d="M86.716 252.175H34.167L34.699 242.025H87.248L86.716 252.175Z" stroke="black" stroke-width="0.7" stroke-linecap="round" stroke-linejoin="round"/>
<path d="M86.716 266.378H34.167L34.699 256.235H87.248L86.716 266.378Z" stroke="black" stroke-width="0.7" stroke-linecap="round" stroke-linejoin="round"/>
<path d="M142.282 124.341H89.733L90.265 114.198H142.814L142.282 124.341Z" stroke="black" stroke-width="0.7" stroke-linecap="round" stroke-linejoin="round"/>
<path d="M142.282 138.544H89.733L90.265 128.401H142.814L142.282 138.544Z" stroke="black" stroke-width="0.7" stroke-linecap="round" stroke-linejoin="round"/>
<path d="M142.282 152.747H89.733L90.265 142.604H142.814L142.282 152.747Z" stroke="black" stroke-width="0.7" stroke-linecap="round" stroke-linejoin="round"/>
<path d="M142.282 166.95H89.733L90.265 156.807H142.814L142.282 166.95Z" stroke="black" stroke-width="0.7" stroke-linecap="round" stroke-linejoin="round"/>
<path d="M142.282 181.16H89.733L90.265 171.01H142.814L142.282 181.16Z" stroke="black" stroke-width="0.7" stroke-linecap="round" stroke-linejoin="round"/>
<path d="M142.282 195.363H89.733L90.265 185.213H142.814L142.282 195.363Z" stroke="black" stroke-width="0.7" stroke-linecap="round" stroke-linejoin="round"/>
<path d="M142.282 209.566H89.733L90.265 199.416H142.814L142.282 209.566Z" stroke="black" stroke-width="0.7" stroke-linecap="round" stroke-linejoin="round"/>
<path d="M142.282 223.769H89.733L90.265 213.619H142.814L142.282 223.769Z" stroke="black" stroke-width="0.7" stroke-linecap="round" stroke-linejoin="round"/>
<path d="M142.282 237.972H89.733L90.265 227.822H142.814L142.282 237.972Z" stroke="black" stroke-width="0.7" stroke-linecap="round" stroke-linejoin="round"/>
<path d="M142.282 252.175H89.733L90.265 242.025H142.814L142.282 252.175Z" stroke="black" stroke-width="0.7" stroke-linecap="round" stroke-linejoin="round"/>
<path d="M142.282 266.378H89.733L90.265 256.235H142.814L142.282 266.378Z" stroke="black" stroke-width="0.7" stroke-linecap="round" stroke-linejoin="round"/>
</g>
<g opacity="0.3">
<path d="M303.863 134.841H236.033V186.158H303.863V134.841Z" stroke="black" stroke-width="0.7" stroke-linecap="round" stroke-linejoin="round"/>
<path d="M300.174 139.083H239.708V181.923H300.174V139.083Z" stroke="black" stroke-width="0.7" stroke-linecap="round" stroke-linejoin="round"/>
<path d="M259.427 145.831H280.462" stroke="black" stroke-width="0.7" stroke-linecap="round" stroke-linejoin="round"/>
<path d="M245.805 152.047H294.084" stroke="black" stroke-width="0.7" stroke-linecap="round" stroke-linejoin="round"/>
<path d="M256.564 164.472H283.325" stroke="black" stroke-width="0.7" stroke-linecap="round" stroke-linejoin="round"/>
<path d="M246.281 176.904H256.802" stroke="black" stroke-width="0.7" stroke-linecap="round" stroke-linejoin="round"/>
<path d="M283.087 176.904H293.601" stroke="black" stroke-width="0.7" stroke-linecap="round" stroke-linejoin="round"/>
</g>
<g opacity="0.3">
<path d="M322.28 196.98H272.356V234.752H322.28V196.98Z" stroke="black" stroke-width="0.7" stroke-linecap="round" stroke-linejoin="round"/>
<path d="M319.571 200.102H275.065V231.637H319.571V200.102Z" stroke="black" stroke-width="0.7" stroke-linecap="round" stroke-linejoin="round"/>
<path d="M289.583 205.072H305.06" stroke="black" stroke-width="0.7" stroke-linecap="round" stroke-linejoin="round"/>
<path d="M279.552 209.643H315.091" stroke="black" stroke-width="0.7" stroke-linecap="round" stroke-linejoin="round"/>
<path d="M287.469 218.792H307.174" stroke="black" stroke-width="0.7" stroke-linecap="round" stroke-linejoin="round"/>
<path d="M279.902 227.941H287.644" stroke="black" stroke-width="0.7" stroke-linecap="round" stroke-linejoin="round"/>
<path d="M306.992 227.941H314.734" stroke="black" stroke-width="0.7" stroke-linecap="round" stroke-linejoin="round"/>
</g>
<path d="M264.446 223.552L191.975 221.032C188.988 220.929 186.002 220.929 183.015 221.032L115.5 223.552L118.496 128.758C118.608 125.169 118.608 121.576 118.496 117.978L115.5 28.532H264.446V223.552Z" fill="#263238" stroke="#263238" stroke-width="0.7" stroke-linecap="round" stroke-linejoin="round"/>
<path d="M266.84 25.186H117.894V220.206H266.84V25.186Z" fill="white" stroke="#263238" stroke-width="0.7" stroke-linecap="round" stroke-linejoin="round"/>
<path d="M256.935 78.337H127.792V209.069H256.935V78.337Z" fill="white" stroke="#263238" stroke-width="0.7" stroke-linecap="round" stroke-linejoin="round"/>
<path d="M129.003 58.8V34.895H136.003C137.22 34.8415 138.429 35.1172 139.503 35.693C140.4 36.2265 141.096 37.0408 141.484 38.01C141.933 39.1817 142.147 40.4305 142.114 41.685C142.17 42.9853 141.895 44.2786 141.316 45.444C140.827 46.3709 140.044 47.1094 139.09 47.544C138.023 48.001 136.87 48.2231 135.709 48.195H133.35V58.8H129.003ZM133.371 45.108H135.023C135.657 45.137 136.289 45.0196 136.871 44.765C137.09 44.6554 137.283 44.5018 137.44 44.3139C137.596 44.126 137.713 43.9078 137.781 43.673C137.97 43.0159 138.055 42.3333 138.033 41.65C138.047 40.9452 137.984 40.2409 137.844 39.55C137.795 39.3047 137.697 39.072 137.555 38.8661C137.413 38.6603 137.23 38.4857 137.018 38.353C136.397 38.0562 135.71 37.9236 135.023 37.968H133.371V45.108Z" fill="#9A1115"/>
<path d="M134.316 70.329L139.125 57.645L134.463 46.445H138.537L141.631 53.851L144.347 46.445H148.127L143.5 58.471L148.456 70.329H144.41L141.015 62.3L138.061 70.322L134.316 70.329Z" fill="#9A1115"/>
<path d="M201.299 42.266H256.508" stroke="#263238" stroke-width="0.7" stroke-linecap="round" stroke-linejoin="round"/>
<path d="M201.299 54.18H256.508" stroke="#263238" stroke-width="0.7" stroke-linecap="round" stroke-linejoin="round"/>
<path d="M213.22 49.021H256.508" stroke="#263238" stroke-width="0.7" stroke-linecap="round" stroke-linejoin="round"/>
<path d="M213.22 59.745H256.508" stroke="#263238" stroke-width="0.7" stroke-linecap="round" stroke-linejoin="round"/>
<path d="M132.188 92.708H175.483" stroke="#263238" stroke-width="0.7" stroke-linecap="round" stroke-linejoin="round"/>
<path d="M132.188 104.013H175.483" stroke="#263238" stroke-width="0.7" stroke-linecap="round" stroke-linejoin="round"/>
<path d="M132.188 98.553H197.729" stroke="#263238" stroke-width="0.7" stroke-linecap="round" stroke-linejoin="round"/>
<path d="M132.188 117.789H175.483" stroke="#263238" stroke-width="0.7" stroke-linecap="round" stroke-linejoin="round"/>
<path d="M132.188 129.094H175.483" stroke="#263238" stroke-width="0.7" stroke-linecap="round" stroke-linejoin="round"/>
<path d="M132.188 123.634H197.729" stroke="#263238" stroke-width="0.7" stroke-linecap="round" stroke-linejoin="round"/>
<path d="M131.264 202.02H172.305" stroke="#263238" stroke-width="0.7" stroke-linecap="round" stroke-linejoin="round"/>
<path d="M209.09 202.02H250.131" stroke="#263238" stroke-width="0.7" stroke-linecap="round" stroke-linejoin="round"/>
<path d="M137.053 156.961C134.599 158.518 132.661 160.768 131.485 163.425C130.309 166.083 129.947 169.03 130.446 171.893C130.944 174.757 132.28 177.408 134.284 179.513C136.289 181.617 138.872 183.08 141.708 183.717C144.544 184.353 147.505 184.135 150.217 183.089C152.929 182.044 155.27 180.218 156.944 177.842C158.618 175.466 159.551 172.647 159.623 169.742C159.696 166.836 158.906 163.975 157.353 161.518C156.32 159.885 154.976 158.471 153.396 157.358C151.817 156.245 150.033 155.454 148.148 155.031C146.262 154.607 144.312 154.56 142.408 154.891C140.504 155.222 138.685 155.926 137.053 156.961ZM151.158 179.2C149.218 180.429 146.957 181.056 144.661 181C142.365 180.944 140.138 180.209 138.259 178.888C136.381 177.566 134.937 175.717 134.11 173.575C133.282 171.432 133.108 169.093 133.61 166.852C134.112 164.611 135.268 162.569 136.93 160.984C138.592 159.4 140.687 158.344 142.95 157.95C145.212 157.556 147.541 157.841 149.641 158.77C151.741 159.7 153.519 161.231 154.749 163.17C155.566 164.458 156.121 165.895 156.383 167.398C156.645 168.901 156.608 170.44 156.275 171.929C155.941 173.418 155.318 174.826 154.44 176.074C153.562 177.321 152.447 178.384 151.158 179.2Z" fill="#9A1115"/>
<path d="M150.397 164.604L137.879 172.536L139.157 174.552L151.674 166.62L150.397 164.604Z" fill="#9A1115"/>
<path d="M137.837 197.4C137.837 197.4 138.04 202.062 144.137 193.746C150.234 185.43 149.415 186.046 147.791 190.708C146.547 193.935 144.9 196.993 142.891 199.808C142.891 199.808 150.199 188.244 150.199 191.485C150.199 194.726 143.297 208.53 144.718 207.312C146.139 206.094 150.605 200.011 150.605 200.011C150.605 200.011 149.996 204.064 151.613 202.237C153.23 200.41 155.064 196.763 154.861 198.793C154.658 200.823 152.019 203.252 154.658 200.823C157.297 198.394 159.327 195.342 158.718 197.575C158.109 199.808 156.485 200.62 158.109 199.808C159.733 198.996 168.861 183.778 166.019 185.605C163.177 187.432 157.906 203.252 160.342 202.034C162.778 200.816 165.613 194.733 165.41 197.778C165.207 200.823 166.019 200.823 166.81 199.808" stroke="#263238" stroke-width="0.7" stroke-linecap="round" stroke-linejoin="round"/>
<path d="M338.163 325.675H18.585" stroke="#263238" stroke-width="0.7" stroke-linecap="round" stroke-linejoin="round"/>
<path d="M338.163 332.367H18.585" stroke="#263238" stroke-width="0.7" stroke-linecap="round" stroke-linejoin="round"/>
<path d="M320.656 251.86H252.896C251.827 251.859 250.793 252.244 249.984 252.943C249.176 253.642 248.646 254.61 248.493 255.668L238.357 324.968H318.934L325.087 256.69C325.14 256.076 325.065 255.457 324.867 254.874C324.669 254.29 324.351 253.754 323.934 253.3C323.517 252.846 323.011 252.483 322.446 252.235C321.882 251.987 321.272 251.86 320.656 251.86Z" fill="#263238" stroke="#263238" stroke-width="0.7" stroke-linecap="round" stroke-linejoin="round"/>
<path d="M228.9 240.548C228.9 240.548 210.567 249.648 204.274 252.161C197.981 254.674 196.434 255.801 195.874 257.341C195.314 258.881 170.828 297.36 168.035 300.86C165.242 304.36 159.215 311.913 160.055 317.086C160.895 322.259 167.615 326.746 174.055 326.606C180.495 326.466 184.555 325.206 185.255 323.386C185.955 321.566 203.728 289.786 203.728 289.786L209.328 325.185H280.833C280.833 325.185 286.433 276.773 286.433 269.633C286.433 262.493 287.833 254.1 284.893 252.28C281.953 250.46 269.78 246.267 260.82 243.327C251.86 240.387 249.067 239.827 246.974 239.827C244.881 239.827 228.9 240.548 228.9 240.548Z" fill="white" stroke="#263238" stroke-width="0.7" stroke-linecap="round" stroke-linejoin="round"/>
<path d="M226.961 240.8C226.961 240.8 224.581 245.28 224.441 248.92C224.301 252.56 223.741 259.273 221.641 263.333C219.541 267.393 218.001 269.633 219.121 269.206C220.241 268.779 226.674 261.653 227.374 260.106C228.074 258.559 229.194 261.506 229.194 261.506C229.194 261.506 227.094 267.519 226.814 268.359C226.534 269.199 235.627 280.812 235.627 280.812C235.627 280.812 243.467 274.659 245.287 273.259C247.107 271.859 246.547 270.739 246.687 268.919C246.827 267.099 247.387 264.446 248.36 262.906C249.333 261.366 252.147 267.4 254.1 270.2C256.053 273 258.02 273.98 257.74 271.88C257.46 269.78 256.48 265.72 255.78 258.58C255.08 251.44 255.22 242.907 253.4 240.247C251.58 237.587 242.032 237.062 235.767 236.614C234.055 236.423 232.324 236.714 230.768 237.453C229.212 238.193 227.894 239.352 226.961 240.8Z" fill="white" stroke="#263238" stroke-width="0.7" stroke-linecap="round" stroke-linejoin="round"/>
<path d="M198.695 264.635L203.735 289.807L197.225 273.07" stroke="#263238" stroke-width="0.7" stroke-linecap="round" stroke-linejoin="round"/>
<path d="M227.661 247.548C227.661 247.548 229.621 258.461 231.441 266.854C232.442 271.631 233.847 276.315 235.641 280.854C235.641 280.854 244.881 265.321 247.541 257.208C249.052 252.732 250.222 248.148 251.041 243.495H227.661V247.548Z" stroke="#263238" stroke-width="0.7" stroke-linecap="round" stroke-linejoin="round"/>
<path d="M237.874 251.3L232.841 257.6L236.341 264.32L232.897 272.657C233.656 275.43 234.573 278.157 235.641 280.826C235.641 280.826 238.525 275.982 241.528 270.326L239.001 264.495L242.081 257.495L237.874 251.3Z" fill="#9A1115" stroke="#263238" stroke-width="0.7" stroke-linecap="round" stroke-linejoin="round"/>
<path d="M227.661 243.488V247.548C227.661 247.548 229.012 255.08 230.51 262.437L237.594 254.961L245.063 263.235C245.997 261.271 246.822 259.256 247.534 257.201C249.045 252.725 250.215 248.141 251.034 243.488H227.661Z" fill="white" stroke="#263238" stroke-width="0.7" stroke-linecap="round" stroke-linejoin="round"/>
<path d="M166.656 305.004C166.656 305.004 179.725 300.23 186.774 311.843" stroke="#263238" stroke-width="0.7" stroke-linecap="round" stroke-linejoin="round"/>
<path d="M187.005 308.259C187.005 308.259 179.704 309.911 175.805 316.134C171.906 322.357 179.837 323.05 182.028 323.05C184.219 323.05 186.291 321.58 186.41 320.817C186.529 320.054 189.399 312.676 189.287 310.954C189.274 310.311 189.04 309.692 188.624 309.201C188.209 308.711 187.637 308.378 187.005 308.259Z" fill="white" stroke="#263238" stroke-width="0.7" stroke-linecap="round" stroke-linejoin="round"/>
<path d="M183.645 310.835C183.645 310.835 179.606 314.335 179.879 315.735C180.152 317.135 186.144 322.525 187.299 321.748C187.507 321.642 187.693 321.496 187.845 321.318C187.997 321.14 188.112 320.935 188.184 320.712C188.256 320.49 188.284 320.255 188.265 320.022C188.247 319.789 188.182 319.562 188.076 319.354C187.747 318.829 183.645 310.835 183.645 310.835Z" fill="white" stroke="#263238" stroke-width="0.7" stroke-linecap="round" stroke-linejoin="round"/>
<path d="M179.9 315.7C179.9 315.7 177.527 318.227 178.304 319.382C179.081 320.537 184.506 323.484 185.913 322.595C187.32 321.706 186.41 320.796 186.41 320.796L179.9 315.7Z" fill="white" stroke="#263238" stroke-width="0.7" stroke-linecap="round" stroke-linejoin="round"/>
<path d="M193.802 310.702L188.944 309.862L190.085 316.855L195.048 317.009L193.802 310.702Z" fill="white" stroke="#263238" stroke-width="0.7" stroke-linecap="round" stroke-linejoin="round"/>
<path d="M185.059 299.705L190.75 319.648L193.515 322.161V318.612L187.495 299.012C187.446 298.849 187.364 298.697 187.255 298.567C187.146 298.436 187.011 298.329 186.86 298.252C186.708 298.175 186.542 298.129 186.372 298.118C186.202 298.106 186.032 298.13 185.871 298.186C185.569 298.29 185.318 298.505 185.167 298.786C185.017 299.068 184.978 299.396 185.059 299.705Z" fill="#263238" stroke="#263238" stroke-width="0.7" stroke-linecap="round" stroke-linejoin="round"/>
<path d="M187.005 308.259C187.005 308.259 183.645 310.226 183.981 311.717C184.317 313.208 187.943 320.18 189.252 320.271C190.561 320.362 191.352 319.571 191.163 318.059C190.974 316.547 189.763 311.059 188.944 309.862C188.125 308.665 188.034 308.189 187.005 308.259Z" fill="white" stroke="#263238" stroke-width="0.7" stroke-linecap="round" stroke-linejoin="round"/>
<path d="M193.802 310.702C193.802 310.702 197.379 311.15 198.002 312.242C198.625 313.334 196.126 317.688 195.328 318.682C194.53 319.676 193.102 319.634 193.06 317.114C193.127 314.96 193.375 312.815 193.802 310.702Z" fill="white" stroke="#263238" stroke-width="0.7" stroke-linecap="round" stroke-linejoin="round"/>
<path d="M174.454 319.123H213.703C214.8 319.125 215.851 319.561 216.626 320.337C217.402 321.112 217.838 322.163 217.84 323.26C217.84 324.188 217.471 325.079 216.815 325.735C216.159 326.391 215.268 326.76 214.34 326.76H175C174.146 326.76 173.327 326.421 172.723 325.817C172.119 325.213 171.78 324.394 171.78 323.54V321.79C171.78 321.439 171.849 321.092 171.984 320.768C172.118 320.444 172.315 320.149 172.564 319.902C172.812 319.654 173.107 319.458 173.431 319.324C173.756 319.19 174.103 319.122 174.454 319.123Z" fill="white" stroke="#263238" stroke-width="0.7" stroke-linecap="round" stroke-linejoin="round"/>
<path d="M244.3 310.1C244.3 310.1 234.087 308.98 231.567 308.14C229.047 307.3 224.987 306.6 223.587 307.72C222.187 308.84 215.334 316.82 215.187 317.793C215.04 318.766 213.647 321.993 214.347 322.833C214.934 323.418 215.655 323.851 216.447 324.093C216.447 324.093 225.547 326.613 226.52 326.753C227.493 326.893 236.873 326.473 236.873 326.473L241.773 324.653L248.626 324.513C248.626 324.513 248.766 326.753 248.906 321.293C249.046 315.833 244.3 310.1 244.3 310.1Z" fill="white" stroke="#263238" stroke-width="0.7" stroke-linecap="round" stroke-linejoin="round"/>
<path d="M216.468 324.1C216.468 324.1 216.608 320.88 217.308 319.48C218.008 318.08 225.981 310.947 225.981 310.947" stroke="#263238" stroke-width="0.7" stroke-linecap="round" stroke-linejoin="round"/>
<path d="M219.1 324.926C219.1 324.926 220.5 321.426 221.06 321.146C221.62 320.866 228.193 316.666 228.193 316.666" stroke="#263238" stroke-width="0.7" stroke-linecap="round" stroke-linejoin="round"/>
<path d="M223.881 325.906C223.881 325.906 224.161 324.506 224.861 324.226C225.561 323.946 231.441 321.286 231.441 321.286" stroke="#263238" stroke-width="0.7" stroke-linecap="round" stroke-linejoin="round"/>
<path d="M230.181 326.606L232.841 325.906L232.561 324.646L229.761 325.346" stroke="#263238" stroke-width="0.7" stroke-linecap="round" stroke-linejoin="round"/>
<path d="M276.353 265.034C276.353 265.034 268.94 280.567 269.353 286.034C269.766 291.501 271.6 300.58 271.6 300.58C271.6 300.58 259.847 305.193 255.787 306.88C251.727 308.567 244.3 310.1 244.3 310.1L248.073 324.933L247.52 326.473H288.232C288.232 326.473 291.312 325.913 291.872 325.213C292.432 324.513 292.992 324.233 293.272 321.993C293.552 319.753 295.372 300.167 294.952 294.693C294.532 289.219 288.792 260.834 288.092 257.894C287.392 254.954 286.139 252.994 284.879 252.294C283.619 251.594 278.159 251.041 278.159 251.041" fill="white"/>
<path d="M276.353 265.034C276.353 265.034 268.94 280.567 269.353 286.034C269.766 291.501 271.6 300.58 271.6 300.58C271.6 300.58 259.847 305.193 255.787 306.88C251.727 308.567 244.3 310.1 244.3 310.1L248.073 324.933L247.52 326.473H288.232C288.232 326.473 291.312 325.913 291.872 325.213C292.432 324.513 292.992 324.233 293.272 321.993C293.552 319.753 295.372 300.167 294.952 294.693C294.532 289.219 288.792 260.834 288.092 257.894C287.392 254.954 286.139 252.994 284.879 252.294C283.619 251.594 278.159 251.041 278.159 251.041" stroke="#263238" stroke-width="0.7" stroke-linecap="round" stroke-linejoin="round"/>
<path d="M272.58 300.86C272.58 300.86 283.353 301.42 288.68 304.773" stroke="#263238" stroke-width="0.7" stroke-linecap="round" stroke-linejoin="round"/>
<path d="M274.533 299.46C274.533 299.46 282.093 299.04 286.153 300.3" stroke="#263238" stroke-width="0.7" stroke-linecap="round" stroke-linejoin="round"/>
<path d="M272.44 264.6C272.44 264.6 268.66 273.42 268.52 276.78C268.38 280.14 268.1 282.1 268.1 282.1" stroke="#263238" stroke-width="0.7" stroke-linecap="round" stroke-linejoin="round"/>
<path d="M255.227 241.248C255.227 241.248 263.76 253.4 256.9 287.287" stroke="#263238" stroke-width="1.4" stroke-linecap="round" stroke-linejoin="round"/>
<path d="M260.96 288.267C260.96 287.436 260.714 286.624 260.252 285.934C259.791 285.243 259.135 284.705 258.367 284.387C257.6 284.069 256.755 283.986 255.941 284.148C255.126 284.31 254.378 284.71 253.79 285.297C253.203 285.885 252.803 286.633 252.641 287.448C252.479 288.262 252.562 289.107 252.88 289.874C253.198 290.642 253.736 291.298 254.427 291.759C255.117 292.221 255.929 292.467 256.76 292.467C257.874 292.467 258.942 292.024 259.73 291.237C260.518 290.449 260.96 289.381 260.96 288.267Z" fill="white" stroke="#263238" stroke-width="0.7" stroke-linecap="round" stroke-linejoin="round"/>
<path d="M226.1 242.508C226.1 242.508 221.767 245.308 221.067 256.641" stroke="#263238" stroke-width="1.4" stroke-linecap="round" stroke-linejoin="round"/>
<path d="M227.087 273.812C226.03 281.456 224.588 289.667 224.287 291.466C223.587 295.316 219.016 296.66 216.076 295.4" stroke="#263238" stroke-width="1.4" stroke-linecap="round" stroke-linejoin="round"/>
<path d="M216.125 274.316C215.166 270.032 214.578 266.315 214.788 264.614C215.768 256.781 221.088 256.641 221.088 256.641C221.088 256.641 227.388 257.481 227.801 264.201C227.845 267.419 227.61 270.634 227.101 273.812" stroke="#263238" stroke-width="1.4" stroke-linecap="round" stroke-linejoin="round"/>
<path d="M227.941 294.84C227.941 294.84 225.001 296.52 223.041 295.4C221.718 294.644 218.141 283.248 216.125 274.316" stroke="#263238" stroke-width="1.4" stroke-linecap="round" stroke-linejoin="round"/>
<path d="M228.965 293.323L227.808 293.822C227.251 294.062 226.994 294.709 227.234 295.266L227.248 295.298C227.488 295.855 228.135 296.113 228.692 295.872L229.849 295.373C230.407 295.133 230.664 294.487 230.424 293.929L230.41 293.897C230.169 293.34 229.523 293.083 228.965 293.323Z" stroke="#263238" stroke-width="0.7" stroke-linecap="round" stroke-linejoin="round"/>
<path d="M216.439 294.082L215.359 293.433C214.838 293.121 214.163 293.289 213.851 293.809L213.833 293.839C213.52 294.36 213.689 295.035 214.209 295.347L215.289 295.996C215.81 296.309 216.485 296.14 216.797 295.62L216.815 295.59C217.128 295.07 216.959 294.394 216.439 294.082Z" stroke="#263238" stroke-width="0.7" stroke-linecap="round" stroke-linejoin="round"/>
<path d="M221.088 208.649C221.088 208.649 218.848 213.962 219.268 217.322C219.688 220.682 224.168 224.322 224.168 224.322C224.168 224.322 225.708 209.349 225.708 208.789C225.708 208.229 222.901 206.969 221.088 208.649Z" fill="#263238" stroke="#263238" stroke-width="0.7" stroke-linecap="round" stroke-linejoin="round"/>
<path d="M219.478 227.682L222.453 225.603" stroke="#263238" stroke-width="1.4" stroke-linecap="round" stroke-linejoin="round"/>
<path d="M222.761 209.629C222.761 209.629 222.201 224.462 222.481 227.255C222.761 230.048 223.881 239.008 224.861 241.808C225.841 244.608 229.061 253.561 231.581 254.541C234.101 255.521 239.134 256.221 240.814 255.101C242.494 253.981 248.647 249.788 250.327 245.728C251.323 243.361 251.983 240.865 252.287 238.315C253.684 237.57 254.89 236.513 255.813 235.226C256.736 233.939 257.349 232.457 257.607 230.895C258.447 225.575 256.207 224.042 256.207 224.042L256.347 214.802C256.347 214.802 254.807 208.369 250.747 204.869C246.687 201.369 241.934 201.089 237.034 203.749C232.134 206.409 222.761 209.629 222.761 209.629Z" fill="white" stroke="#263238" stroke-width="0.7" stroke-linecap="round" stroke-linejoin="round"/>
<path d="M249.067 208.789C249.067 208.789 249.207 205.149 245.714 206.409C242.221 207.669 241.374 210.049 236.194 212.149C231.014 214.249 224.161 211.869 221.788 210.469C219.415 209.069 217.728 207.109 220.948 203.469C224.168 199.829 231.721 196.196 239.848 196.196C247.975 196.196 254.261 202.909 256.921 205.709C259.581 208.509 260.001 212.009 259.021 214.522C258.041 217.035 256.221 224.042 256.221 224.042C256.221 224.042 255.101 223.902 254.681 225.575C254.261 227.248 254.401 229.075 252.581 229.215C250.761 229.355 250.901 224.462 250.901 224.462C250.901 224.462 246.428 223.062 245.868 219.842C245.308 216.622 249.067 211.869 249.067 208.789Z" fill="#263238" stroke="#263238" stroke-width="0.7" stroke-linecap="round" stroke-linejoin="round"/>
<path d="M232.4 229.964L219.457 227.682L220.206 233.485C220.252 233.846 220.413 234.182 220.665 234.444C220.917 234.707 221.247 234.881 221.606 234.941L229.474 236.18C229.907 236.25 230.349 236.149 230.709 235.898C231.068 235.647 231.315 235.266 231.399 234.836L232.4 229.964Z" stroke="#263238" stroke-width="1.4" stroke-linecap="round" stroke-linejoin="round"/>
<path d="M234.759 230.209L249.767 229.775L248.297 235.207C248.17 235.573 247.929 235.888 247.608 236.105C247.288 236.322 246.906 236.429 246.519 236.411L237.419 236.537C236.947 236.57 236.48 236.431 236.102 236.147C235.724 235.863 235.461 235.452 235.361 234.99L234.759 230.209Z" stroke="#263238" stroke-width="1.4" stroke-linecap="round" stroke-linejoin="round"/>
<path d="M232.421 229.964L234.759 230.209" stroke="#263238" stroke-width="1.4" stroke-linecap="round" stroke-linejoin="round"/>
<path d="M249.767 229.775L254.667 225.575" stroke="#263238" stroke-width="1.4" stroke-linecap="round" stroke-linejoin="round"/>
<path d="M236.754 228.515C236.754 228.515 240.954 225.302 244.874 227.255" stroke="#263238" stroke-width="1.4" stroke-linecap="round" stroke-linejoin="round"/>
<path d="M230.461 227.815C230.461 227.815 227.241 224.315 223.601 226.695" stroke="#263238" stroke-width="1.4" stroke-linecap="round" stroke-linejoin="round"/>
<path d="M231.301 239.988C231.301 239.988 230.601 242.928 231.301 243.488C232.493 244.146 233.868 244.392 235.214 244.188" stroke="#263238" stroke-width="0.7" stroke-linecap="round" stroke-linejoin="round"/>
<path d="M229.201 245.7C229.201 245.7 232.001 247.8 234.661 247.94C237.321 248.08 240.394 246.12 240.394 246.12" stroke="#263238" stroke-width="0.7" stroke-linecap="round" stroke-linejoin="round"/>
<path d="M239.554 231.455C239.554 231.455 241.234 233.415 244.034 231.315" stroke="#263238" stroke-width="0.7" stroke-linecap="round" stroke-linejoin="round"/>
<path d="M225.771 230.594C225.771 230.594 227.171 232.764 230.223 231.063" stroke="#263238" stroke-width="0.7" stroke-linecap="round" stroke-linejoin="round"/>
<path d="M138.95 208.775C138.95 208.775 139.839 222.11 139.167 223.223L137.2 226.555C137.2 226.555 138.089 236.117 136.311 237.223C134.933 237.961 133.422 238.415 131.866 238.56C131.866 238.56 130.088 245.672 129.416 246.561C128.744 247.45 124.747 250.341 123.417 250.761C122.087 251.181 117.859 251.461 107.856 245.427C97.853 239.393 94.073 237.426 94.297 234.094C94.521 230.762 94.997 226.982 94.997 226.982C94.997 226.982 96.11 210.973 98.112 206.087C100.114 201.201 125.454 198.527 131.012 199.864C136.57 201.201 138.95 208.775 138.95 208.775Z" fill="white" stroke="#263238" stroke-width="0.7" stroke-linecap="round" stroke-linejoin="round"/>
<path d="M113.162 230.776L114.723 231.889C114.723 231.889 113.386 237.223 114.023 239.673" stroke="#263238" stroke-width="0.7" stroke-linecap="round" stroke-linejoin="round"/>
<path d="M135.387 226.31C135.163 227.332 134.624 228.074 134.19 227.976C133.756 227.878 133.581 226.982 133.812 225.96C134.043 224.938 134.575 224.196 135.009 224.294C135.443 224.392 135.618 225.295 135.387 226.31Z" fill="#263238"/>
<path d="M133.119 222.229C133.119 222.229 135.541 219.807 137.564 222.096" stroke="#263238" stroke-width="0.7" stroke-linecap="round" stroke-linejoin="round"/>
<path d="M130.06 206.997C130.06 206.997 132.944 212.331 132.727 213.444C132.51 214.557 123.389 217.224 123.389 217.224C123.389 217.224 122.5 222.558 121.163 223.223L119.833 223.888C118.767 222.44 117.872 220.873 117.166 219.219C115.612 215.887 113.386 215.019 110.943 218.33C108.5 221.641 110.495 229.446 111.832 230.111L113.162 230.776C113.162 230.776 112.049 231.889 107.828 232.561C103.607 233.233 100.492 234.115 97.384 233.226C94.276 232.337 89.824 223.888 88.284 212.996C86.744 202.104 91.616 192.773 98.084 189.896C104.552 187.019 119.203 189.672 120.309 190.337C121.415 191.002 128.982 187.453 133.427 189.672C137.872 191.891 137.627 194.341 138.761 195.895C139.895 197.449 145.649 195.454 146.097 201.012C146.545 206.57 144.319 209.902 141.428 210.343C138.537 210.784 130.06 206.997 130.06 206.997Z" fill="#263238" stroke="#263238" stroke-width="0.7" stroke-linecap="round" stroke-linejoin="round"/>
<path d="M77.427 241.892C77.427 241.892 56.126 253.253 52.066 255.5C48.006 257.747 47.397 259.763 47.166 261.8C46.935 263.837 47.166 332.395 47.166 332.395H162.225C162.225 332.395 144.774 280 144.2 274.148C143.626 268.296 142.38 257.915 140.756 256.697C139.132 255.479 116.2 245.336 116.2 245.336C116.2 245.336 110.719 239.456 97.741 239.456C84.763 239.456 77.427 241.892 77.427 241.892Z" fill="#9A1115" stroke="#263238" stroke-width="0.7" stroke-linecap="round" stroke-linejoin="round"/>
<path d="M90.615 283.633C91.217 283.871 91.826 284.088 92.435 284.291" stroke="#263238" stroke-width="0.7" stroke-linecap="round" stroke-linejoin="round"/>
<path d="M67.9 264.817C67.9 264.817 76.3 276.535 87.773 282.317" stroke="#263238" stroke-width="0.7" stroke-linecap="round" stroke-linejoin="round"/>
<path d="M75.194 278.404C75.194 278.404 79.856 283.073 89.593 285.712" stroke="#263238" stroke-width="0.7" stroke-linecap="round" stroke-linejoin="round"/>
<path d="M133 261.59C129.759 265.272 125.195 271.159 123.683 276.577" stroke="#263238" stroke-width="0.7" stroke-linecap="round" stroke-linejoin="round"/>
<path d="M136.458 257.915C136.458 257.915 135.814 258.538 134.806 259.609" stroke="#263238" stroke-width="0.7" stroke-linecap="round" stroke-linejoin="round"/>
<path d="M124.894 270.088C124.894 270.088 121.849 275.968 121.247 279.622" stroke="#263238" stroke-width="0.7" stroke-linecap="round" stroke-linejoin="round"/>
<path d="M76.209 242.9C76.209 242.9 87.976 242.494 99.134 242.697C110.292 242.9 117.6 246.351 117.6 246.351C117.6 246.351 110.901 238.238 107.863 236.411C104.825 234.584 95.487 231.511 87.78 233.975C83.0322 235.57 78.9574 238.713 76.209 242.9Z" fill="#9A1115" stroke="#263238" stroke-width="0.7" stroke-linecap="round" stroke-linejoin="round"/>
<path d="M42.749 332.318L32.025 291.2C31.9209 290.701 31.9295 290.184 32.0501 289.689C32.1707 289.193 32.4003 288.731 32.7221 288.335C33.044 287.94 33.45 287.621 33.9107 287.402C34.3713 287.183 34.875 287.07 35.385 287.07H120.708C121.492 287.071 122.252 287.339 122.863 287.83C123.474 288.321 123.899 289.006 124.068 289.772L133.539 332.36" fill="#263238"/>
<path d="M42.749 332.318L32.025 291.2C31.9209 290.701 31.9295 290.184 32.0501 289.689C32.1707 289.193 32.4003 288.731 32.7221 288.335C33.044 287.94 33.45 287.621 33.9107 287.402C34.3713 287.183 34.875 287.07 35.385 287.07H120.708C121.492 287.071 122.252 287.339 122.863 287.83C123.474 288.321 123.899 289.006 124.068 289.772L133.539 332.36" stroke="#263238" stroke-width="0.7" stroke-linecap="round" stroke-linejoin="round"/>
</svg>
