<svg width="350" height="350" viewBox="0 0 350 350" fill="none" xmlns="http://www.w3.org/2000/svg">
<path d="M205.912 328.342C205.912 328.342 170.254 335.566 137.802 328.342C117.971 323.925 76.16 313.446 66.297 289.688C56.434 265.93 103.929 245.665 80.591 221.571C70.525 211.176 22.211 197.463 24.927 130.032C27.643 62.601 98.434 21.49 196.812 23.324C295.19 25.158 351.967 114.611 313.915 158.662C275.863 202.713 259.49 202.846 276.738 238.7C293.986 274.554 270.039 318.073 205.912 328.342Z" fill="#9A1115"/>
<path opacity="0.7" d="M205.912 328.342C205.912 328.342 170.254 335.566 137.802 328.342C117.971 323.925 76.16 313.446 66.297 289.688C56.434 265.93 103.929 245.665 80.591 221.571C70.525 211.176 22.211 197.463 24.927 130.032C27.643 62.601 98.434 21.49 196.812 23.324C295.19 25.158 351.967 114.611 313.915 158.662C275.863 202.713 259.49 202.846 276.738 238.7C293.986 274.554 270.039 318.073 205.912 328.342Z" fill="white"/>
<path d="M233.401 216.006L284.2 212.919C284.2 212.919 286.3 261.982 298.9 287.945L242.809 295.981C242.809 295.981 234.605 253.792 233.401 216.006Z" stroke="#263238" stroke-width="0.763323" stroke-linecap="round" stroke-linejoin="round"/>
<path d="M231.945 220.955C231.945 220.955 231.791 254.261 239.337 300.496L293.09 295.092L292.39 291.473" stroke="#263238" stroke-width="0.763323" stroke-linecap="round" stroke-linejoin="round"/>
<path d="M241.451 230.594C241.451 230.594 245.651 227.794 248.094 228.683C250.537 229.572 249.305 233.219 251.72 231.245C254.135 229.271 258.363 227.353 259.266 229.215C260.169 231.077 267.421 229.215 267.421 229.215C267.421 229.215 274.946 228.039 279.034 227.892" stroke="#263238" stroke-width="0.763323" stroke-linecap="round" stroke-linejoin="round"/>
<path d="M244.055 244.909C246.086 244.089 248.048 243.106 249.921 241.969C249.591 242.743 249.551 243.611 249.809 244.412C250.67 243.943 251.531 243.474 252.399 243.012C252.444 243.319 252.608 243.595 252.856 243.781C253.104 243.967 253.415 244.048 253.722 244.006C254.422 243.873 255.122 243.124 255.689 243.488C255.864 243.593 255.983 243.775 256.165 243.852C256.466 243.978 256.795 243.775 257.054 243.579L259.728 241.612C259.672 242.466 260.575 243.124 261.429 243.18C262.289 243.148 263.135 242.961 263.928 242.627C268.702 241.15 274.253 243.096 278.628 240.751" stroke="#263238" stroke-width="0.763323" stroke-linecap="round" stroke-linejoin="round"/>
<path d="M245.336 256.508C246.423 255.95 247.616 255.625 248.836 255.556C248.955 255.955 249.081 256.361 249.207 256.767C249.827 256.618 250.419 256.367 250.957 256.025C251.272 256.375 251.846 256.165 252.252 255.941L256.991 253.344C256.614 254.891 256.493 256.49 256.634 258.076L260.239 254.576C260.47 255.388 261.688 255.465 262.339 254.94C262.577 254.751 262.822 254.492 263.123 254.52C263.424 254.548 263.494 255.136 263.193 255.087C263.697 254.52 264.593 254.786 265.349 254.898C267.68 255.241 269.794 253.638 272.027 252.875C274.68 251.958 277.585 252.245 280.385 252.539" stroke="#263238" stroke-width="0.763323" stroke-linecap="round" stroke-linejoin="round"/>
<path d="M248.08 270.067C248.321 270.111 248.569 270.086 248.797 269.996C249.025 269.906 249.223 269.753 249.368 269.556C249.654 269.158 250.031 268.834 250.467 268.611C250.929 268.45 251.58 268.786 251.482 269.262C253.008 268.627 254.416 267.74 255.647 266.637C255.54 268.097 255.861 269.557 256.571 270.837C257.327 271.145 258.09 270.438 258.552 269.773C259.014 269.108 259.574 268.296 260.386 268.331C260.729 268.331 261.051 268.513 261.401 268.555C262.227 268.639 262.92 267.953 263.697 267.659C264.964 267.176 266.497 267.729 267.68 267.057C269.234 266.182 269.479 263.557 271.236 263.263C271.117 265.461 270.991 267.659 270.872 269.857C271.724 268.603 272.79 267.508 274.022 266.623C274.484 267.323 275.583 267.155 276.297 266.7C277.011 266.245 277.648 265.58 278.481 265.503C278.955 265.508 279.425 265.577 279.881 265.706C280.805 265.879 281.759 265.777 282.625 265.412" stroke="#263238" stroke-width="0.763323" stroke-linecap="round" stroke-linejoin="round"/>
<path d="M110.047 244.454H81.347C79.789 244.454 78.526 245.717 78.526 247.275V293.16C78.526 294.718 79.789 295.981 81.347 295.981H110.047C111.605 295.981 112.868 294.718 112.868 293.16V247.275C112.868 245.717 111.605 244.454 110.047 244.454Z" stroke="#263238" stroke-width="0.763323" stroke-linecap="round" stroke-linejoin="round"/>
<path d="M81.466 242.767V231.742H110.411V242.767H85.54" stroke="#263238" stroke-width="0.763323" stroke-linecap="round" stroke-linejoin="round"/>
<path d="M108.045 233.471V241.22" stroke="#263238" stroke-width="0.763323" stroke-linecap="round" stroke-linejoin="round"/>
<path d="M84.021 233.471V241.22" stroke="#263238" stroke-width="0.763323" stroke-linecap="round" stroke-linejoin="round"/>
<path d="M88.697 233.471V241.22" stroke="#263238" stroke-width="0.763323" stroke-linecap="round" stroke-linejoin="round"/>
<path d="M103.131 233.562V241.22" stroke="#263238" stroke-width="0.763323" stroke-linecap="round" stroke-linejoin="round"/>
<path d="M96.565 233.562V241.22" stroke="#263238" stroke-width="0.763323" stroke-linecap="round" stroke-linejoin="round"/>
<path d="M79.499 258.615H105.392V279.748H79.499" stroke="#263238" stroke-width="0.763323" stroke-linecap="round" stroke-linejoin="round"/>
<path d="M111.055 247.968V273.637" stroke="#263238" stroke-width="0.763323" stroke-linecap="round" stroke-linejoin="round"/>
<path d="M111.055 275.527V279.748" stroke="#263238" stroke-width="0.763323" stroke-linecap="round" stroke-linejoin="round"/>
<path d="M42.021 290.717H76.37" stroke="#263238" stroke-width="0.763323" stroke-linecap="round" stroke-linejoin="round"/>
<path d="M112.868 290.717H123.011" stroke="#263238" stroke-width="0.763323" stroke-linecap="round" stroke-linejoin="round"/>
<path d="M228.165 290.717H237.307" stroke="#263238" stroke-width="0.763323" stroke-linecap="round" stroke-linejoin="round"/>
<path d="M298.081 290.717H319.494" stroke="#263238" stroke-width="0.763323" stroke-linecap="round" stroke-linejoin="round"/>
<path d="M321.65 148.89C327.603 139.496 330.691 128.571 330.537 117.45C330.382 106.329 326.992 95.4943 320.781 86.2687C314.569 77.0432 305.805 69.8265 295.559 65.5004C285.313 61.1743 274.029 59.926 263.086 61.9081C252.142 63.8903 242.012 69.0169 233.935 76.6618C225.857 84.3067 220.181 94.1388 217.6 104.957C215.018 115.775 215.644 127.111 219.4 137.579C223.156 148.047 229.879 157.195 238.749 163.905L236.068 177.03L246.785 168.994C259.511 175.645 274.272 177.27 288.139 173.546C302.007 169.822 313.968 161.022 321.65 148.89Z" fill="#9A1115" stroke="#263238" stroke-width="0.763323" stroke-linecap="round" stroke-linejoin="round"/>
<path d="M310.656 155.641C331.3 134.997 331.3 101.525 310.656 80.8804C290.011 60.2357 256.539 60.2357 235.895 80.8804C215.25 101.525 215.25 134.997 235.895 155.641C256.539 176.286 290.011 176.286 310.656 155.641Z" fill="#263238"/>
<path d="M272.944 154.273L275.919 159.936C276.131 160.322 276.466 160.625 276.871 160.797C277.163 160.916 277.481 160.96 277.795 160.923L283.213 160.314C283.483 160.281 283.742 160.192 283.975 160.052C284.208 159.912 284.409 159.725 284.564 159.502L287.546 155.092C287.687 154.88 287.782 154.642 287.826 154.392C287.899 154.024 287.855 153.642 287.7 153.3L285.488 147.84C285.358 147.517 285.14 147.236 284.86 147.03C284.579 146.823 284.246 146.699 283.899 146.671L277.487 146.153C277.117 146.122 276.747 146.203 276.422 146.383C276.098 146.564 275.835 146.837 275.667 147.168L272.909 152.516C272.77 152.789 272.7 153.092 272.706 153.399C272.712 153.705 272.794 154.006 272.944 154.273Z" fill="white"/>
<mask id="mask0_3_9164" style="mask-type:luminance" maskUnits="userSpaceOnUse" x="272" y="146" width="16" height="15">
<path d="M272.944 154.273L275.919 159.936C276.131 160.322 276.466 160.625 276.871 160.797C277.163 160.916 277.481 160.96 277.795 160.923L283.213 160.314C283.483 160.281 283.742 160.192 283.975 160.052C284.208 159.912 284.409 159.725 284.564 159.502L287.546 155.092C287.687 154.88 287.782 154.642 287.826 154.392C287.899 154.024 287.855 153.642 287.7 153.3L285.488 147.84C285.358 147.517 285.14 147.236 284.86 147.03C284.579 146.823 284.246 146.699 283.899 146.671L277.487 146.153C277.117 146.122 276.747 146.203 276.422 146.383C276.098 146.564 275.835 146.837 275.667 147.168L272.909 152.516C272.77 152.789 272.7 153.092 272.706 153.399C272.712 153.705 272.794 154.006 272.944 154.273Z" fill="white"/>
</mask>
<g mask="url(#mask0_3_9164)">
<path opacity="0.4" d="M276.871 160.797C277.163 160.916 277.481 160.96 277.795 160.923L283.213 160.314C283.483 160.281 283.742 160.192 283.975 160.052C284.208 159.912 284.409 159.725 284.564 159.502L287.546 155.092C287.687 154.88 287.782 154.642 287.826 154.392H282.1C281.727 154.391 281.36 154.486 281.034 154.668C280.708 154.849 280.434 155.111 280.238 155.428L276.871 160.797Z" fill="#9A1115"/>
</g>
<path d="M272.944 154.273L275.919 159.936C276.131 160.322 276.466 160.625 276.871 160.797C277.163 160.916 277.481 160.96 277.795 160.923L283.213 160.314C283.483 160.281 283.742 160.192 283.975 160.052C284.208 159.912 284.409 159.725 284.564 159.502L287.546 155.092C287.687 154.88 287.782 154.642 287.826 154.392C287.899 154.024 287.855 153.642 287.7 153.3L285.488 147.84C285.358 147.517 285.14 147.236 284.86 147.03C284.579 146.823 284.246 146.699 283.899 146.671L277.487 146.153C277.117 146.122 276.747 146.203 276.422 146.383C276.098 146.564 275.835 146.837 275.667 147.168L272.909 152.516C272.77 152.789 272.7 153.092 272.706 153.399C272.712 153.705 272.794 154.006 272.944 154.273Z" stroke="#263238" stroke-width="0.763323" stroke-linecap="round" stroke-linejoin="round"/>
<path d="M286.629 153.552H282.156C281.739 153.554 281.329 153.44 280.972 153.224C280.615 153.008 280.325 152.698 280.133 152.327L277.774 147.749" stroke="#263238" stroke-width="0.763323" stroke-linecap="round" stroke-linejoin="round"/>
<path d="M280.301 155.204L277.774 159.369" stroke="#263238" stroke-width="0.763323" stroke-linecap="round" stroke-linejoin="round"/>
<path d="M310.8 112L309.512 114.331C309.423 114.49 309.393 114.677 309.428 114.856C309.455 114.985 309.513 115.105 309.596 115.206L311.045 116.956C311.119 117.043 311.209 117.113 311.312 117.163C311.414 117.212 311.526 117.24 311.64 117.243H313.852C313.958 117.246 314.063 117.224 314.16 117.18C314.302 117.126 314.424 117.031 314.51 116.907L315.91 114.884C315.992 114.765 316.039 114.625 316.047 114.48C316.054 114.336 316.021 114.192 315.952 114.065L314.664 111.713C314.591 111.577 314.48 111.466 314.344 111.394C314.208 111.322 314.054 111.292 313.901 111.307L311.409 111.573C311.28 111.589 311.157 111.636 311.051 111.71C310.945 111.785 310.859 111.884 310.8 112Z" fill="white"/>
<mask id="mask1_3_9164" style="mask-type:luminance" maskUnits="userSpaceOnUse" x="309" y="111" width="8" height="7">
<path d="M310.8 112L309.512 114.331C309.423 114.49 309.393 114.677 309.428 114.856C309.455 114.985 309.513 115.105 309.596 115.206L311.045 116.956C311.119 117.043 311.209 117.113 311.312 117.163C311.414 117.212 311.526 117.24 311.64 117.243H313.852C313.958 117.246 314.063 117.224 314.16 117.18C314.302 117.126 314.424 117.031 314.51 116.907L315.91 114.884C315.992 114.765 316.039 114.625 316.047 114.48C316.054 114.336 316.021 114.192 315.952 114.065L314.664 111.713C314.591 111.577 314.48 111.466 314.344 111.394C314.208 111.322 314.054 111.292 313.901 111.307L311.409 111.573C311.28 111.589 311.157 111.636 311.051 111.71C310.945 111.785 310.859 111.884 310.8 112Z" fill="white"/>
</mask>
<g mask="url(#mask1_3_9164)">
<path opacity="0.4" d="M309.4 114.884C309.427 115.013 309.485 115.133 309.568 115.234L311.017 116.984C311.091 117.071 311.181 117.141 311.284 117.191C311.386 117.24 311.498 117.268 311.612 117.271H313.824C313.93 117.274 314.035 117.252 314.132 117.208L312.823 115.206C312.737 115.078 312.62 114.974 312.483 114.903C312.346 114.832 312.193 114.797 312.039 114.8L309.4 114.884Z" fill="#9A1115"/>
</g>
<path d="M310.8 112L309.512 114.331C309.423 114.49 309.393 114.677 309.428 114.856C309.455 114.985 309.513 115.105 309.596 115.206L311.045 116.956C311.119 117.043 311.209 117.113 311.312 117.163C311.414 117.212 311.526 117.24 311.64 117.243H313.852C313.958 117.246 314.063 117.224 314.16 117.18C314.302 117.126 314.424 117.031 314.51 116.907L315.91 114.884C315.992 114.765 316.039 114.625 316.047 114.48C316.054 114.336 316.021 114.192 315.952 114.065L314.664 111.713C314.591 111.577 314.48 111.466 314.344 111.394C314.208 111.322 314.054 111.292 313.901 111.307L311.409 111.573C311.28 111.589 311.157 111.636 311.051 111.71C310.945 111.785 310.859 111.884 310.8 112Z" stroke="#263238" stroke-width="0.763323" stroke-linecap="round" stroke-linejoin="round"/>
<path d="M314.16 116.627L313.138 115.073C313.047 114.924 312.999 114.754 312.999 114.579C312.999 114.405 313.047 114.235 313.138 114.086L314.195 112.217" stroke="#263238" stroke-width="0.763323" stroke-linecap="round" stroke-linejoin="round"/>
<path d="M312.137 114.8L310.107 114.87" stroke="#263238" stroke-width="0.763323" stroke-linecap="round" stroke-linejoin="round"/>
<path d="M249.585 152.257L250.824 154.616C250.911 154.78 251.052 154.908 251.223 154.98C251.346 155.024 251.478 155.041 251.608 155.029L253.862 154.777C253.975 154.764 254.083 154.726 254.18 154.667C254.276 154.608 254.359 154.528 254.422 154.434L255.668 152.6C255.725 152.51 255.765 152.41 255.787 152.306C255.815 152.158 255.8 152.005 255.745 151.865L254.8 149.59C254.746 149.456 254.656 149.339 254.539 149.253C254.423 149.167 254.286 149.114 254.142 149.1L251.468 148.89C251.314 148.876 251.16 148.909 251.025 148.984C250.891 149.059 250.781 149.172 250.712 149.31L249.564 151.536C249.508 151.649 249.481 151.773 249.485 151.899C249.489 152.025 249.523 152.148 249.585 152.257Z" fill="white"/>
<mask id="mask2_3_9164" style="mask-type:luminance" maskUnits="userSpaceOnUse" x="249" y="148" width="7" height="8">
<path d="M249.585 152.257L250.824 154.616C250.911 154.78 251.052 154.908 251.223 154.98C251.346 155.024 251.478 155.041 251.608 155.029L253.862 154.777C253.975 154.764 254.083 154.726 254.18 154.667C254.276 154.608 254.359 154.528 254.422 154.434L255.668 152.6C255.725 152.51 255.765 152.41 255.787 152.306C255.815 152.158 255.8 152.005 255.745 151.865L254.8 149.59C254.746 149.456 254.656 149.339 254.539 149.253C254.423 149.167 254.286 149.114 254.142 149.1L251.468 148.89C251.314 148.876 251.16 148.909 251.025 148.984C250.891 149.059 250.781 149.172 250.712 149.31L249.564 151.536C249.508 151.649 249.481 151.773 249.485 151.899C249.489 152.025 249.523 152.148 249.585 152.257Z" fill="white"/>
</mask>
<g mask="url(#mask2_3_9164)">
<path opacity="0.4" d="M251.223 154.98C251.346 155.024 251.478 155.041 251.608 155.029L253.862 154.777C253.975 154.764 254.083 154.726 254.18 154.667C254.276 154.608 254.359 154.528 254.422 154.434L255.668 152.6C255.725 152.51 255.765 152.41 255.787 152.306H253.4C253.244 152.307 253.092 152.347 252.956 152.423C252.82 152.499 252.706 152.608 252.623 152.74L251.223 154.98Z" fill="#9A1115"/>
</g>
<path d="M249.585 152.257L250.824 154.616C250.911 154.78 251.052 154.908 251.223 154.98C251.346 155.024 251.478 155.041 251.608 155.029L253.862 154.777C253.975 154.764 254.083 154.726 254.18 154.667C254.276 154.608 254.359 154.528 254.422 154.434L255.668 152.6C255.725 152.51 255.765 152.41 255.787 152.306C255.815 152.158 255.8 152.005 255.745 151.865L254.8 149.59C254.746 149.456 254.656 149.339 254.539 149.253C254.423 149.167 254.286 149.114 254.142 149.1L251.468 148.89C251.314 148.876 251.16 148.909 251.025 148.984C250.891 149.059 250.781 149.172 250.712 149.31L249.564 151.536C249.508 151.649 249.481 151.773 249.485 151.899C249.489 152.025 249.523 152.148 249.585 152.257Z" stroke="#263238" stroke-width="0.763323" stroke-linecap="round" stroke-linejoin="round"/>
<path d="M255.283 151.956H253.4C253.226 151.957 253.056 151.91 252.908 151.819C252.759 151.729 252.639 151.6 252.56 151.445L251.573 149.541" stroke="#263238" stroke-width="0.763323" stroke-linecap="round" stroke-linejoin="round"/>
<path d="M252.651 152.649L251.594 154.385" stroke="#263238" stroke-width="0.763323" stroke-linecap="round" stroke-linejoin="round"/>
<path d="M239.47 91.301L237.09 92.491C236.925 92.5751 236.794 92.7135 236.719 92.883C236.669 93.0025 236.648 93.1318 236.656 93.261L236.866 95.529C236.877 95.6408 236.911 95.7492 236.966 95.8469C237.022 95.9446 237.097 96.0295 237.188 96.096L238.994 97.377C239.082 97.4387 239.182 97.4816 239.288 97.503C239.432 97.5477 239.585 97.5477 239.729 97.503L242.025 96.635C242.161 96.5832 242.279 96.495 242.368 96.3802C242.457 96.2654 242.513 96.1283 242.529 95.984L242.802 93.317C242.819 93.1628 242.789 93.007 242.717 92.8698C242.645 92.7326 242.533 92.6201 242.396 92.547L240.198 91.35C240.089 91.2851 239.966 91.2468 239.84 91.2383C239.713 91.2298 239.587 91.2512 239.47 91.301Z" fill="white"/>
<mask id="mask3_3_9164" style="mask-type:luminance" maskUnits="userSpaceOnUse" x="236" y="91" width="7" height="7">
<path d="M239.47 91.301L237.09 92.491C236.925 92.5751 236.794 92.7135 236.719 92.883C236.669 93.0025 236.648 93.1318 236.656 93.261L236.866 95.529C236.877 95.6408 236.911 95.7492 236.966 95.8469C237.022 95.9446 237.097 96.0295 237.188 96.096L238.994 97.377C239.082 97.4387 239.182 97.4816 239.288 97.503C239.432 97.5477 239.585 97.5477 239.729 97.503L242.025 96.635C242.161 96.5832 242.279 96.495 242.368 96.3802C242.457 96.2654 242.513 96.1283 242.529 95.984L242.802 93.317C242.819 93.1628 242.789 93.007 242.717 92.8698C242.645 92.7326 242.533 92.6201 242.396 92.547L240.198 91.35C240.089 91.2851 239.966 91.2468 239.84 91.2383C239.713 91.2298 239.587 91.2512 239.47 91.301Z" fill="white"/>
</mask>
<g mask="url(#mask3_3_9164)">
<path opacity="0.4" d="M236.719 92.883C236.669 93.0025 236.648 93.1318 236.656 93.261L236.866 95.529C236.877 95.6408 236.911 95.7492 236.966 95.8469C237.022 95.9446 237.097 96.0295 237.188 96.096L238.994 97.377C239.082 97.4388 239.182 97.4816 239.288 97.503L239.337 95.109C239.341 94.9539 239.305 94.8005 239.232 94.6633C239.16 94.5261 239.054 94.4097 238.924 94.325L236.719 92.883Z" fill="#9A1115"/>
</g>
<path d="M239.47 91.301L237.09 92.491C236.925 92.5751 236.794 92.7135 236.719 92.883C236.669 93.0025 236.648 93.1318 236.656 93.261L236.866 95.529C236.877 95.6408 236.911 95.7492 236.966 95.8469C237.022 95.9446 237.097 96.0295 237.188 96.096L238.994 97.377C239.082 97.4387 239.182 97.4816 239.288 97.503C239.432 97.5477 239.585 97.5477 239.729 97.503L242.025 96.635C242.161 96.5832 242.279 96.495 242.368 96.3802C242.457 96.2654 242.513 96.1283 242.529 95.984L242.802 93.317C242.819 93.1628 242.789 93.007 242.717 92.8698C242.645 92.7326 242.533 92.6201 242.396 92.547L240.198 91.35C240.089 91.2851 239.966 91.2468 239.84 91.2383C239.713 91.2298 239.587 91.2512 239.47 91.301Z" stroke="#263238" stroke-width="0.763323" stroke-linecap="round" stroke-linejoin="round"/>
<path d="M239.645 97.006L239.687 95.144C239.691 94.9706 239.742 94.8016 239.836 94.6558C239.93 94.5099 240.063 94.393 240.219 94.318L242.144 93.373" stroke="#263238" stroke-width="0.763323" stroke-linecap="round" stroke-linejoin="round"/>
<path d="M239.015 94.36L237.307 93.268" stroke="#263238" stroke-width="0.763323" stroke-linecap="round" stroke-linejoin="round"/>
<path d="M309.561 132.741V136.353C309.562 136.92 309.402 137.475 309.099 137.955C308.797 138.434 308.365 138.818 307.853 139.062L304.43 140.7C303.979 140.916 303.48 141.015 302.981 140.987C302.7 140.971 302.422 140.917 302.155 140.826L299.103 139.762C298.513 139.558 298.001 139.176 297.639 138.668C297.276 138.16 297.081 137.551 297.08 136.927V133.259C297.081 132.945 297.133 132.633 297.234 132.335C297.382 131.868 297.643 131.445 297.995 131.104C298.347 130.763 298.778 130.515 299.25 130.382L303.002 129.29C303.474 129.147 303.975 129.125 304.458 129.227L307.181 129.808C307.853 129.951 308.457 130.32 308.89 130.853C309.323 131.387 309.56 132.054 309.561 132.741Z" fill="white"/>
<mask id="mask4_3_9164" style="mask-type:luminance" maskUnits="userSpaceOnUse" x="297" y="129" width="13" height="12">
<path d="M309.561 132.741V136.353C309.562 136.92 309.402 137.475 309.099 137.955C308.797 138.434 308.365 138.818 307.853 139.062L304.43 140.7C303.979 140.916 303.48 141.015 302.981 140.987C302.7 140.971 302.422 140.917 302.155 140.826L299.103 139.762C298.513 139.558 298.001 139.176 297.639 138.668C297.276 138.16 297.081 137.551 297.08 136.927V133.259C297.081 132.945 297.133 132.633 297.234 132.335C297.382 131.868 297.643 131.445 297.995 131.104C298.347 130.763 298.778 130.515 299.25 130.382L303.002 129.29C303.474 129.147 303.975 129.125 304.458 129.227L307.181 129.808C307.853 129.951 308.457 130.32 308.89 130.853C309.323 131.387 309.56 132.054 309.561 132.741Z" fill="white"/>
</mask>
<g mask="url(#mask4_3_9164)">
<path opacity="0.4" d="M303.142 133.637C303.142 133.637 303.093 137.837 302.981 140.98C302.7 140.964 302.422 140.91 302.155 140.819L299.103 139.755C298.513 139.551 298.001 139.169 297.639 138.661C297.276 138.153 297.081 137.544 297.08 136.92V133.252C297.081 132.938 297.133 132.626 297.234 132.328L303.142 133.637Z" fill="#9A1115"/>
</g>
<path d="M309.561 132.741V136.353C309.562 136.92 309.402 137.475 309.099 137.955C308.797 138.434 308.365 138.818 307.853 139.062L304.43 140.7C303.979 140.916 303.48 141.015 302.981 140.987C302.7 140.971 302.422 140.917 302.155 140.826L299.103 139.762C298.513 139.558 298.001 139.176 297.639 138.668C297.276 138.16 297.081 137.551 297.08 136.927V133.259C297.081 132.945 297.133 132.633 297.234 132.335C297.382 131.868 297.643 131.445 297.995 131.104C298.347 130.763 298.778 130.515 299.25 130.382L303.002 129.29C303.474 129.147 303.975 129.125 304.458 129.227L307.181 129.808C307.853 129.951 308.457 130.32 308.89 130.853C309.323 131.387 309.56 132.054 309.561 132.741Z" stroke="#263238" stroke-width="0.763323" stroke-linecap="round" stroke-linejoin="round"/>
<path d="M299.446 132.713L302.652 133.336C302.847 133.368 303.024 133.467 303.152 133.617C303.28 133.767 303.351 133.958 303.352 134.155V138.754" stroke="#263238" stroke-width="0.763323" stroke-linecap="round" stroke-linejoin="round"/>
<path d="M307.748 132.006L304.633 133.217" stroke="#263238" stroke-width="0.763323" stroke-linecap="round" stroke-linejoin="round"/>
<path d="M250.103 100.961V104.573C250.101 105.14 250.26 105.696 250.562 106.176C250.865 106.656 251.298 107.04 251.811 107.282L255.227 108.913C255.681 109.128 256.181 109.227 256.683 109.2C256.963 109.188 257.239 109.133 257.502 109.039L260.561 107.975C261.151 107.771 261.663 107.389 262.025 106.881C262.388 106.373 262.583 105.764 262.584 105.14V101.5C262.583 101.186 262.531 100.874 262.43 100.576C262.28 100.11 262.018 99.6881 261.666 99.3475C261.315 99.0069 260.885 98.758 260.414 98.623L256.655 97.531C256.183 97.3878 255.682 97.3662 255.199 97.468L252.483 98.049C251.813 98.1897 251.212 98.5553 250.779 99.085C250.346 99.6148 250.108 100.277 250.103 100.961Z" fill="white"/>
<mask id="mask5_3_9164" style="mask-type:luminance" maskUnits="userSpaceOnUse" x="250" y="97" width="13" height="13">
<path d="M250.103 100.961V104.573C250.101 105.14 250.26 105.696 250.562 106.176C250.865 106.656 251.298 107.04 251.811 107.282L255.227 108.913C255.681 109.128 256.181 109.227 256.683 109.2C256.963 109.188 257.239 109.133 257.502 109.039L260.561 107.975C261.151 107.771 261.663 107.389 262.025 106.881C262.388 106.373 262.583 105.764 262.584 105.14V101.5C262.583 101.186 262.531 100.874 262.43 100.576C262.28 100.11 262.018 99.6881 261.666 99.3475C261.315 99.0069 260.885 98.758 260.414 98.623L256.655 97.531C256.183 97.3878 255.682 97.3662 255.199 97.468L252.483 98.049C251.813 98.1897 251.212 98.5553 250.779 99.085C250.346 99.6148 250.108 100.277 250.103 100.961Z" fill="white"/>
</mask>
<g mask="url(#mask5_3_9164)">
<path opacity="0.4" d="M256.522 101.857C256.522 101.857 256.564 106.057 256.683 109.2C256.963 109.188 257.239 109.133 257.502 109.039L260.561 107.975C261.151 107.771 261.663 107.389 262.025 106.881C262.388 106.373 262.583 105.764 262.584 105.14V101.5C262.583 101.186 262.531 100.874 262.43 100.576L256.522 101.857Z" fill="#9A1115"/>
</g>
<path d="M250.103 100.961V104.573C250.101 105.14 250.26 105.696 250.562 106.176C250.865 106.656 251.298 107.04 251.811 107.282L255.227 108.913C255.681 109.128 256.181 109.227 256.683 109.2C256.963 109.188 257.239 109.133 257.502 109.039L260.561 107.975C261.151 107.771 261.663 107.389 262.025 106.881C262.388 106.373 262.583 105.764 262.584 105.14V101.5C262.583 101.186 262.531 100.874 262.43 100.576C262.28 100.11 262.018 99.6881 261.666 99.3475C261.315 99.0069 260.885 98.758 260.414 98.623L256.655 97.531C256.183 97.3878 255.682 97.3662 255.199 97.468L252.483 98.049C251.813 98.1897 251.212 98.5553 250.779 99.085C250.346 99.6148 250.108 100.277 250.103 100.961Z" stroke="#263238" stroke-width="0.763323" stroke-linecap="round" stroke-linejoin="round"/>
<path d="M260.211 100.933L257.012 101.556C256.817 101.587 256.64 101.687 256.512 101.837C256.384 101.987 256.313 102.178 256.312 102.375V106.974" stroke="#263238" stroke-width="0.763323" stroke-linecap="round" stroke-linejoin="round"/>
<path d="M251.909 100.226L255.031 101.437" stroke="#263238" stroke-width="0.763323" stroke-linecap="round" stroke-linejoin="round"/>
<path d="M271.404 137.613L269.304 140.581C268.882 141.176 268.259 141.598 267.549 141.768C266.84 141.938 266.093 141.845 265.447 141.505L263.046 140.238C262.463 139.93 261.997 139.438 261.723 138.838L260.876 137.032C260.581 136.402 260.514 135.69 260.687 135.016C260.781 134.654 260.94 134.313 261.156 134.008L263.431 130.851C263.815 130.312 264.366 129.914 264.999 129.721C265.632 129.527 266.311 129.548 266.931 129.78L269.367 130.676C269.819 130.841 270.224 131.113 270.549 131.467C270.874 131.822 271.11 132.249 271.236 132.713L271.873 135.086C271.987 135.516 272.004 135.965 271.923 136.402C271.841 136.839 271.664 137.253 271.404 137.613Z" fill="white"/>
<mask id="mask6_3_9164" style="mask-type:luminance" maskUnits="userSpaceOnUse" x="260" y="129" width="12" height="13">
<path d="M271.404 137.613L269.304 140.581C268.882 141.176 268.259 141.598 267.549 141.768C266.84 141.938 266.093 141.845 265.447 141.505L263.046 140.238C262.463 139.93 261.997 139.438 261.723 138.838L260.876 137.032C260.581 136.402 260.514 135.69 260.687 135.016C260.781 134.654 260.94 134.313 261.156 134.008L263.431 130.851C263.815 130.312 264.366 129.914 264.999 129.721C265.632 129.527 266.311 129.548 266.931 129.78L269.367 130.676C269.819 130.841 270.224 131.113 270.549 131.467C270.874 131.822 271.11 132.249 271.236 132.713L271.873 135.086C271.987 135.516 272.004 135.965 271.923 136.402C271.841 136.839 271.664 137.253 271.404 137.613Z" fill="white"/>
</mask>
<g mask="url(#mask6_3_9164)">
<path opacity="0.4" d="M267.568 141.764C266.86 141.939 266.112 141.846 265.468 141.505L263.067 140.238C262.484 139.93 262.018 139.438 261.744 138.838L260.897 137.032C260.602 136.402 260.535 135.69 260.708 135.016L265.944 136.654L267.568 141.764Z" fill="#9A1115"/>
</g>
<path d="M271.404 137.613L269.304 140.581C268.882 141.176 268.259 141.598 267.549 141.768C266.84 141.938 266.093 141.845 265.447 141.505L263.046 140.238C262.463 139.93 261.997 139.438 261.723 138.838L260.876 137.032C260.581 136.402 260.514 135.69 260.687 135.016C260.781 134.654 260.94 134.313 261.156 134.008L263.431 130.851C263.815 130.312 264.366 129.914 264.999 129.721C265.632 129.527 266.311 129.548 266.931 129.78L269.367 130.676C269.819 130.841 270.224 131.113 270.549 131.467C270.874 131.822 271.11 132.249 271.236 132.713L271.873 135.086C271.987 135.516 272.004 135.965 271.923 136.402C271.841 136.839 271.664 137.253 271.404 137.613Z" stroke="#263238" stroke-width="0.763323" stroke-linecap="round" stroke-linejoin="round"/>
<path d="M262.752 135.73L265.181 136.584C265.492 136.692 265.831 136.693 266.143 136.587C266.455 136.48 266.723 136.272 266.903 135.996L269.094 132.678" stroke="#263238" stroke-width="0.763323" stroke-linecap="round" stroke-linejoin="round"/>
<path d="M266.273 137.865L266.875 139.881" stroke="#263238" stroke-width="0.763323" stroke-linecap="round" stroke-linejoin="round"/>
<path d="M266 76.426L268.002 79.464C268.399 80.0666 268.566 80.7924 268.471 81.508C268.38 82.2404 268.018 82.9122 267.456 83.391L265.398 85.169C264.901 85.5914 264.278 85.8375 263.627 85.869L261.639 86.002C261.107 86.0399 260.575 85.9337 260.098 85.6948C259.621 85.4558 259.218 85.0928 258.93 84.644L256.83 81.368C256.472 80.8184 256.305 80.1663 256.354 79.5123C256.404 78.8583 256.667 78.2387 257.103 77.749L258.818 75.803C259.138 75.4432 259.539 75.1652 259.989 74.9923C260.438 74.8194 260.922 74.7565 261.401 74.809L263.844 75.082C264.28 75.1348 264.699 75.2825 265.071 75.5148C265.444 75.747 265.761 76.058 266 76.426Z" fill="white"/>
<mask id="mask7_3_9164" style="mask-type:luminance" maskUnits="userSpaceOnUse" x="256" y="74" width="13" height="13">
<path d="M266 76.426L268.002 79.464C268.399 80.0666 268.566 80.7924 268.471 81.508C268.38 82.2404 268.018 82.9122 267.456 83.391L265.398 85.169C264.901 85.5914 264.278 85.8375 263.627 85.869L261.639 86.002C261.107 86.0399 260.575 85.9337 260.098 85.6948C259.621 85.4558 259.218 85.0928 258.93 84.644L256.83 81.368C256.472 80.8184 256.305 80.1663 256.354 79.5123C256.404 78.8583 256.667 78.2387 257.103 77.749L258.818 75.803C259.138 75.4432 259.539 75.1652 259.989 74.9923C260.438 74.8194 260.922 74.7565 261.401 74.809L263.844 75.082C264.28 75.1348 264.699 75.2825 265.071 75.5148C265.444 75.747 265.761 76.058 266 76.426Z" fill="white"/>
</mask>
<g mask="url(#mask7_3_9164)">
<path opacity="0.4" d="M268.485 81.508C268.394 82.2404 268.032 82.9122 267.47 83.391L265.412 85.169C264.915 85.5914 264.292 85.8376 263.641 85.869L261.653 86.002C260.96 86.0501 260.271 85.8545 259.707 85.449L263.137 81.165L268.485 81.508Z" fill="#9A1115"/>
</g>
<path d="M266 76.426L268.002 79.464C268.399 80.0666 268.566 80.7924 268.471 81.508C268.38 82.2404 268.018 82.9122 267.456 83.391L265.398 85.169C264.901 85.5914 264.278 85.8375 263.627 85.869L261.639 86.002C261.107 86.0399 260.575 85.9337 260.098 85.6948C259.621 85.4558 259.218 85.0928 258.93 84.644L256.83 81.368C256.472 80.8184 256.305 80.1663 256.354 79.5123C256.404 78.8583 256.667 78.2387 257.103 77.749L258.818 75.803C259.138 75.4432 259.539 75.1652 259.989 74.9923C260.438 74.8194 260.922 74.7565 261.401 74.809L263.844 75.082C264.28 75.1348 264.699 75.2825 265.071 75.5148C265.444 75.747 265.761 76.058 266 76.426Z" stroke="#263238" stroke-width="0.763323" stroke-linecap="round" stroke-linejoin="round"/>
<path d="M261.1 83.797L262.773 81.844C262.987 81.5931 263.112 81.278 263.127 80.9484C263.142 80.6188 263.047 80.2935 262.857 80.024L260.561 76.783" stroke="#263238" stroke-width="0.763323" stroke-linecap="round" stroke-linejoin="round"/>
<path d="M264.383 81.298L266.476 81.466" stroke="#263238" stroke-width="0.763323" stroke-linecap="round" stroke-linejoin="round"/>
<path d="M300.72 99.085L300.51 102.711C300.474 103.434 300.175 104.118 299.67 104.636C299.16 105.17 298.468 105.492 297.731 105.539L295.022 105.735C294.368 105.785 293.716 105.617 293.167 105.259L291.494 104.181C290.91 103.803 290.475 103.234 290.262 102.571C290.147 102.214 290.102 101.839 290.129 101.465L290.381 97.58C290.424 96.9255 290.679 96.3029 291.109 95.8074C291.539 95.3119 292.119 94.9707 292.761 94.836L295.302 94.304C295.773 94.2043 296.261 94.2191 296.725 94.3469C297.189 94.4748 297.616 94.7122 297.969 95.039L299.761 96.719C300.085 97.0184 300.339 97.3857 300.505 97.7947C300.671 98.2037 300.744 98.6443 300.72 99.085Z" fill="white"/>
<mask id="mask8_3_9164" style="mask-type:luminance" maskUnits="userSpaceOnUse" x="290" y="94" width="11" height="12">
<path d="M300.72 99.085L300.51 102.711C300.474 103.434 300.175 104.118 299.67 104.636C299.16 105.17 298.468 105.492 297.731 105.539L295.022 105.735C294.368 105.785 293.716 105.617 293.167 105.259L291.494 104.181C290.91 103.803 290.475 103.234 290.262 102.571C290.147 102.214 290.102 101.839 290.129 101.465L290.381 97.58C290.424 96.9255 290.679 96.3029 291.109 95.8074C291.539 95.3119 292.119 94.9707 292.761 94.836L295.302 94.304C295.773 94.2043 296.261 94.2191 296.725 94.3469C297.189 94.4748 297.616 94.7122 297.969 95.039L299.761 96.719C300.085 97.0184 300.339 97.3857 300.505 97.7947C300.671 98.2037 300.744 98.6443 300.72 99.085Z" fill="white"/>
</mask>
<g mask="url(#mask8_3_9164)">
<path opacity="0.4" d="M299.67 104.636C299.16 105.17 298.468 105.492 297.731 105.539L295.022 105.735C294.368 105.785 293.716 105.617 293.167 105.259L291.494 104.181C290.91 103.802 290.475 103.234 290.262 102.571L295.568 101.171L299.67 104.636Z" fill="#9A1115"/>
</g>
<path d="M300.72 99.085L300.51 102.711C300.474 103.434 300.175 104.118 299.67 104.636C299.16 105.17 298.468 105.492 297.731 105.539L295.022 105.735C294.368 105.785 293.716 105.617 293.167 105.259L291.494 104.181C290.91 103.803 290.475 103.234 290.262 102.571C290.147 102.214 290.102 101.839 290.129 101.465L290.381 97.58C290.424 96.9255 290.679 96.3029 291.109 95.8074C291.539 95.3119 292.119 94.9707 292.761 94.836L295.302 94.304C295.773 94.2043 296.261 94.2191 296.725 94.3469C297.189 94.4748 297.616 94.7122 297.969 95.039L299.761 96.719C300.085 97.0184 300.339 97.3857 300.505 97.7947C300.671 98.2037 300.744 98.6443 300.72 99.085Z" stroke="#263238" stroke-width="0.763323" stroke-linecap="round" stroke-linejoin="round"/>
<path d="M292.383 102.074L294.896 101.5C295.217 101.43 295.506 101.253 295.715 101C295.925 100.746 296.043 100.429 296.051 100.1L296.142 96.124" stroke="#263238" stroke-width="0.763323" stroke-linecap="round" stroke-linejoin="round"/>
<path d="M296.506 102.018L298.081 103.404" stroke="#263238" stroke-width="0.763323" stroke-linecap="round" stroke-linejoin="round"/>
<path d="M245.819 120.939L248.759 125.405C249.35 126.301 249.596 127.382 249.449 128.446C249.302 129.51 248.773 130.484 247.961 131.187L244.937 133.798C244.207 134.431 243.29 134.808 242.326 134.869L239.4 135.1C238.616 135.153 237.832 134.995 237.13 134.641C236.428 134.288 235.834 133.752 235.41 133.091L232.302 128.282C231.774 127.473 231.526 126.513 231.597 125.549C231.668 124.585 232.053 123.671 232.694 122.948L235.221 120.092C235.69 119.56 236.281 119.149 236.942 118.893C237.604 118.637 238.317 118.544 239.022 118.622L242.613 119.021C243.255 119.088 243.874 119.295 244.428 119.626C244.981 119.957 245.456 120.405 245.819 120.939Z" fill="white"/>
<mask id="mask9_3_9164" style="mask-type:luminance" maskUnits="userSpaceOnUse" x="231" y="118" width="19" height="18">
<path d="M245.819 120.939L248.759 125.405C249.35 126.301 249.596 127.382 249.449 128.446C249.302 129.51 248.773 130.484 247.961 131.187L244.937 133.798C244.207 134.431 243.29 134.808 242.326 134.869L239.4 135.1C238.616 135.153 237.832 134.995 237.13 134.641C236.428 134.288 235.834 133.752 235.41 133.091L232.302 128.282C231.774 127.473 231.526 126.513 231.597 125.549C231.668 124.585 232.053 123.671 232.694 122.948L235.221 120.092C235.69 119.56 236.281 119.149 236.942 118.893C237.604 118.637 238.317 118.544 239.022 118.622L242.613 119.021C243.255 119.088 243.874 119.295 244.428 119.626C244.981 119.957 245.456 120.405 245.819 120.939Z" fill="white"/>
</mask>
<g mask="url(#mask9_3_9164)">
<path opacity="0.4" d="M249.452 128.415C249.326 129.503 248.794 130.503 247.961 131.215L244.937 133.826C244.207 134.459 243.29 134.836 242.326 134.897L239.4 135.1C238.38 135.161 237.37 134.872 236.537 134.281L241.584 127.981L249.452 128.415Z" fill="#9A1115"/>
</g>
<path d="M245.819 120.939L248.759 125.405C249.35 126.301 249.596 127.382 249.449 128.446C249.302 129.51 248.773 130.484 247.961 131.187L244.937 133.798C244.207 134.431 243.29 134.808 242.326 134.869L239.4 135.1C238.616 135.153 237.832 134.995 237.13 134.641C236.428 134.288 235.834 133.752 235.41 133.091L232.302 128.282C231.774 127.473 231.526 126.513 231.597 125.549C231.668 124.585 232.053 123.671 232.694 122.948L235.221 120.092C235.69 119.56 236.281 119.149 236.942 118.893C237.604 118.637 238.317 118.544 239.022 118.622L242.613 119.021C243.255 119.088 243.874 119.295 244.428 119.626C244.981 119.957 245.456 120.405 245.819 120.939Z" stroke="#263238" stroke-width="0.763323" stroke-linecap="round" stroke-linejoin="round"/>
<path d="M238.602 131.789L241.073 128.912C241.388 128.543 241.57 128.08 241.592 127.595C241.614 127.111 241.473 126.633 241.192 126.238L237.811 121.457" stroke="#263238" stroke-width="0.763323" stroke-linecap="round" stroke-linejoin="round"/>
<path d="M243.418 128.107L246.498 128.352" stroke="#263238" stroke-width="0.763323" stroke-linecap="round" stroke-linejoin="round"/>
<path d="M285.082 89.649L288.435 94.388C289.108 95.3398 290.104 96.0145 291.237 96.2863C292.37 96.558 293.564 96.4083 294.595 95.865L298.438 93.842C299.361 93.3511 300.099 92.5718 300.538 91.623L301.889 88.746C302.358 87.7396 302.466 86.6029 302.197 85.526C302.051 84.9457 301.794 84.3991 301.441 83.916L297.808 78.869C297.199 78.0144 296.325 77.3842 295.322 77.0755C294.318 76.7668 293.241 76.7969 292.257 77.161L288.365 78.561C287.644 78.8272 286.997 79.2622 286.478 79.8297C285.959 80.3972 285.584 81.0807 285.383 81.823L284.368 85.61C284.181 86.2942 284.149 87.0112 284.272 87.7096C284.396 88.4079 284.672 89.0702 285.082 89.649Z" fill="white"/>
<mask id="mask10_3_9164" style="mask-type:luminance" maskUnits="userSpaceOnUse" x="284" y="76" width="19" height="21">
<path d="M285.082 89.649L288.435 94.388C289.108 95.3398 290.104 96.0145 291.237 96.2863C292.37 96.558 293.564 96.4083 294.595 95.865L298.438 93.842C299.361 93.3511 300.099 92.5718 300.538 91.623L301.889 88.746C302.358 87.7396 302.466 86.6029 302.197 85.526C302.051 84.9457 301.794 84.3991 301.441 83.916L297.808 78.869C297.199 78.0144 296.325 77.3842 295.322 77.0755C294.318 76.7668 293.241 76.7969 292.257 77.161L288.365 78.561C287.644 78.8272 286.997 79.2622 286.478 79.8297C285.959 80.3972 285.584 81.0807 285.383 81.823L284.368 85.61C284.181 86.2942 284.149 87.0112 284.272 87.7096C284.396 88.4079 284.672 89.0702 285.082 89.649Z" fill="white"/>
</mask>
<g mask="url(#mask10_3_9164)">
<path opacity="0.4" d="M291.2 96.278C292.341 96.568 293.55 96.4206 294.588 95.865L298.431 93.842C299.354 93.3511 300.092 92.5719 300.531 91.623L301.882 88.746C302.351 87.7397 302.459 86.6029 302.19 85.526L293.79 88.137L291.2 96.278Z" fill="#9A1115"/>
</g>
<path d="M285.082 89.649L288.435 94.388C289.108 95.3398 290.104 96.0145 291.237 96.2863C292.37 96.558 293.564 96.4083 294.595 95.865L298.438 93.842C299.361 93.3511 300.099 92.5718 300.538 91.623L301.889 88.746C302.358 87.7396 302.466 86.6029 302.197 85.526C302.051 84.9457 301.794 84.3991 301.441 83.916L297.808 78.869C297.199 78.0144 296.325 77.3842 295.322 77.0755C294.318 76.7668 293.241 76.7969 292.257 77.161L288.365 78.561C287.644 78.8272 286.997 79.2622 286.478 79.8297C285.959 80.3972 285.584 81.0807 285.383 81.823L284.368 85.61C284.181 86.2942 284.149 87.0112 284.272 87.7096C284.396 88.4079 284.672 89.0702 285.082 89.649Z" stroke="#263238" stroke-width="0.763323" stroke-linecap="round" stroke-linejoin="round"/>
<path d="M298.9 86.646L295.015 87.997C294.518 88.1696 293.978 88.1718 293.48 88.0032C292.982 87.8346 292.554 87.5048 292.264 87.066L288.764 81.76" stroke="#263238" stroke-width="0.763323" stroke-linecap="round" stroke-linejoin="round"/>
<path d="M293.279 90.055L292.313 93.268" stroke="#263238" stroke-width="0.763323" stroke-linecap="round" stroke-linejoin="round"/>
<path d="M282.464 112.938L277.704 121.989C277.372 122.618 276.833 123.112 276.178 123.389C275.712 123.577 275.207 123.645 274.708 123.585L266.042 122.612C265.611 122.562 265.196 122.42 264.825 122.195C264.455 121.971 264.137 121.669 263.893 121.31L259.126 114.268C258.901 113.931 258.747 113.553 258.671 113.155C258.553 112.582 258.609 111.987 258.832 111.447L262.367 102.718C262.575 102.201 262.923 101.752 263.372 101.422C263.82 101.092 264.353 100.893 264.908 100.849L275.156 100.023C275.747 99.976 276.338 100.104 276.856 100.392C277.374 100.68 277.796 101.114 278.068 101.64L282.471 110.194C282.689 110.619 282.802 111.089 282.801 111.567C282.8 112.044 282.684 112.514 282.464 112.938Z" fill="white"/>
<mask id="mask11_3_9164" style="mask-type:luminance" maskUnits="userSpaceOnUse" x="258" y="100" width="25" height="24">
<path d="M282.464 112.938L277.704 121.989C277.372 122.618 276.833 123.112 276.178 123.389C275.712 123.577 275.207 123.645 274.708 123.585L266.042 122.612C265.611 122.562 265.196 122.42 264.825 122.195C264.455 121.971 264.137 121.669 263.893 121.31L259.126 114.268C258.901 113.931 258.747 113.553 258.671 113.155C258.553 112.582 258.609 111.987 258.832 111.447L262.367 102.718C262.575 102.201 262.923 101.752 263.372 101.422C263.82 101.092 264.353 100.893 264.908 100.849L275.156 100.023C275.747 99.976 276.338 100.104 276.856 100.392C277.374 100.68 277.796 101.114 278.068 101.64L282.471 110.194C282.689 110.619 282.802 111.089 282.801 111.567C282.8 112.044 282.684 112.514 282.464 112.938Z" fill="white"/>
</mask>
<g mask="url(#mask11_3_9164)">
<path opacity="0.4" d="M276.178 123.368C275.712 123.556 275.207 123.624 274.708 123.564L266.042 122.591C265.611 122.541 265.196 122.399 264.825 122.174C264.455 121.95 264.137 121.648 263.893 121.289L259.126 114.247C258.901 113.91 258.747 113.532 258.671 113.134H267.855C268.452 113.135 269.038 113.289 269.559 113.58C270.08 113.872 270.517 114.292 270.83 114.8L276.178 123.368Z" fill="#9A1115"/>
</g>
<path d="M282.464 112.938L277.704 121.989C277.372 122.618 276.833 123.112 276.178 123.389C275.712 123.577 275.207 123.645 274.708 123.585L266.042 122.612C265.611 122.562 265.196 122.42 264.825 122.195C264.455 121.971 264.137 121.669 263.893 121.31L259.126 114.268C258.901 113.931 258.747 113.553 258.671 113.155C258.553 112.582 258.609 111.987 258.832 111.447L262.367 102.718C262.575 102.201 262.923 101.752 263.372 101.422C263.82 101.092 264.353 100.893 264.908 100.849L275.156 100.023C275.747 99.976 276.338 100.104 276.856 100.392C277.374 100.68 277.796 101.114 278.068 101.64L282.471 110.194C282.689 110.619 282.802 111.089 282.801 111.567C282.8 112.044 282.684 112.514 282.464 112.938Z" stroke="#263238" stroke-width="0.763323" stroke-linecap="round" stroke-linejoin="round"/>
<path d="M260.589 111.79H267.743C268.41 111.79 269.064 111.607 269.633 111.26C270.202 110.913 270.665 110.416 270.97 109.823L274.743 102.515" stroke="#263238" stroke-width="0.763323" stroke-linecap="round" stroke-linejoin="round"/>
<path d="M270.711 114.422L274.743 121.086" stroke="#263238" stroke-width="0.763323" stroke-linecap="round" stroke-linejoin="round"/>
<path d="M215.817 167.888H134.841C129.603 167.888 125.356 172.135 125.356 177.373V290.514C125.356 295.752 129.603 299.999 134.841 299.999H215.817C221.055 299.999 225.302 295.752 225.302 290.514V177.373C225.302 172.135 221.055 167.888 215.817 167.888Z" fill="#9A1115" stroke="#263238" stroke-width="0.763323" stroke-linecap="round" stroke-linejoin="round"/>
<path opacity="0.4" d="M220.584 289.303V178.584C220.584 175.279 217.904 172.599 214.599 172.599H136.052C132.747 172.599 130.067 175.279 130.067 178.584V289.303C130.067 292.608 132.747 295.288 136.052 295.288H214.599C217.904 295.288 220.584 292.608 220.584 289.303Z" fill="white"/>
<path d="M220.584 227.01V287.21C220.58 289.348 219.73 291.397 218.218 292.908C216.707 294.42 214.658 295.27 212.52 295.274H168" stroke="#263238" stroke-width="0.763323" stroke-linecap="round" stroke-linejoin="round"/>
<path d="M198.891 172.599H201.208" stroke="#263238" stroke-width="0.763323" stroke-linecap="round" stroke-linejoin="round"/>
<path d="M130.067 245.651V180.663C130.071 178.525 130.921 176.476 132.433 174.965C133.944 173.453 135.993 172.603 138.131 172.599H189.7" stroke="#263238" stroke-width="0.763323" stroke-linecap="round" stroke-linejoin="round"/>
<path d="M130.067 266.287V250.873" stroke="#263238" stroke-width="0.763323" stroke-linecap="round" stroke-linejoin="round"/>
<path d="M130.067 274.967V272.902" stroke="#263238" stroke-width="0.763323" stroke-linecap="round" stroke-linejoin="round"/>
<path d="M165.235 295.288H160.405" stroke="#263238" stroke-width="0.763323" stroke-linecap="round" stroke-linejoin="round"/>
<path d="M220.584 208.901V220.297" stroke="#263238" stroke-width="0.763323" stroke-linecap="round" stroke-linejoin="round"/>
<path d="M220.584 192.92V195.93" stroke="#263238" stroke-width="0.763323" stroke-linecap="round" stroke-linejoin="round"/>
<path d="M212.436 181.608H138.222C135.373 181.608 133.063 183.918 133.063 186.767V244.65C133.063 247.499 135.373 249.809 138.222 249.809H212.436C215.285 249.809 217.595 247.499 217.595 244.65V186.767C217.595 183.918 215.285 181.608 212.436 181.608Z" fill="#263238"/>
<path d="M211.12 187.502H139.524C137.726 187.502 136.269 188.959 136.269 190.757V240.667C136.269 242.465 137.726 243.922 139.524 243.922H211.12C212.918 243.922 214.375 242.465 214.375 240.667V190.757C214.375 188.959 212.918 187.502 211.12 187.502Z" fill="#999999" stroke="#263238" stroke-width="0.763323" stroke-linecap="round" stroke-linejoin="round"/>
<path d="M171.02 275.226C172.294 269.798 168.927 264.366 163.499 263.092C158.072 261.818 152.64 265.185 151.366 270.612C150.092 276.04 153.459 281.472 158.886 282.746C164.313 284.02 169.746 280.653 171.02 275.226Z" fill="#9A1115"/>
<mask id="mask12_3_9164" style="mask-type:luminance" maskUnits="userSpaceOnUse" x="151" y="262" width="21" height="22">
<path d="M171.02 275.226C172.294 269.798 168.927 264.366 163.499 263.092C158.072 261.818 152.64 265.185 151.366 270.612C150.092 276.039 153.459 281.472 158.886 282.746C164.313 284.02 169.746 280.653 171.02 275.226Z" fill="white"/>
</mask>
<g mask="url(#mask12_3_9164)">
<path opacity="0.2" d="M161.189 262.808C159.191 262.807 157.237 263.398 155.575 264.507C153.912 265.617 152.617 267.194 151.851 269.04C151.086 270.886 150.885 272.918 151.275 274.878C151.664 276.838 152.626 278.638 154.04 280.051C155.453 281.464 157.253 282.427 159.213 282.816C161.173 283.206 163.205 283.005 165.051 282.24C166.897 281.474 168.474 280.179 169.584 278.516C170.693 276.854 171.284 274.9 171.283 272.902C171.281 270.225 170.217 267.659 168.324 265.766C166.432 263.874 163.866 262.81 161.189 262.808ZM160.097 278.523C158.733 278.523 157.4 278.119 156.266 277.361C155.132 276.603 154.249 275.526 153.727 274.267C153.205 273.007 153.068 271.62 153.334 270.283C153.601 268.945 154.257 267.717 155.221 266.752C156.186 265.788 157.414 265.131 158.752 264.865C160.089 264.599 161.476 264.736 162.736 265.258C163.995 265.78 165.072 266.663 165.83 267.797C166.588 268.931 166.992 270.264 166.992 271.628C166.992 273.457 166.266 275.21 164.972 276.503C163.679 277.796 161.926 278.523 160.097 278.523Z" fill="black" fill-opacity="0.7"/>
</g>
<path d="M171.02 275.226C172.294 269.798 168.927 264.366 163.499 263.092C158.072 261.818 152.64 265.185 151.366 270.612C150.092 276.04 153.459 281.472 158.886 282.746C164.313 284.02 169.746 280.653 171.02 275.226Z" stroke="#263238" stroke-width="0.763323" stroke-linecap="round" stroke-linejoin="round"/>
<path d="M156.289 272.902L164.199 276.857V268.947L156.289 272.902Z" fill="#263238"/>
<path d="M196.603 280.04C200.545 276.098 200.545 269.706 196.603 265.764C192.661 261.823 186.27 261.823 182.328 265.764C178.386 269.706 178.386 276.098 182.328 280.04C186.27 283.982 192.661 283.982 196.603 280.04Z" fill="#9A1115"/>
<mask id="mask13_3_9164" style="mask-type:luminance" maskUnits="userSpaceOnUse" x="179" y="262" width="21" height="21">
<path d="M196.603 280.04C200.545 276.098 200.545 269.706 196.603 265.765C192.661 261.823 186.27 261.823 182.328 265.765C178.386 269.706 178.386 276.098 182.328 280.04C186.27 283.982 192.661 283.982 196.603 280.04Z" fill="white"/>
</mask>
<g mask="url(#mask13_3_9164)">
<path opacity="0.2" d="M189.469 262.808C187.471 262.807 185.517 263.398 183.855 264.507C182.192 265.617 180.897 267.194 180.131 269.04C179.366 270.886 179.165 272.918 179.555 274.878C179.944 276.838 180.906 278.638 182.32 280.052C183.733 281.465 185.533 282.427 187.493 282.816C189.453 283.206 191.485 283.005 193.331 282.24C195.177 281.474 196.754 280.179 197.864 278.516C198.973 276.854 199.564 274.9 199.563 272.902C199.561 270.226 198.497 267.659 196.604 265.767C194.712 263.874 192.146 262.81 189.469 262.808ZM188.377 278.523C187.016 278.518 185.686 278.109 184.557 277.349C183.427 276.59 182.548 275.512 182.03 274.254C181.511 272.995 181.377 271.611 181.644 270.276C181.911 268.941 182.567 267.715 183.53 266.753C184.492 265.79 185.718 265.134 187.053 264.867C188.388 264.6 189.772 264.734 191.031 265.253C192.289 265.771 193.367 266.65 194.126 267.78C194.886 268.91 195.294 270.239 195.3 271.6C195.304 272.51 195.127 273.412 194.781 274.254C194.434 275.095 193.924 275.86 193.281 276.504C192.637 277.147 191.872 277.657 191.031 278.004C190.189 278.35 189.287 278.527 188.377 278.523Z" fill="black" fill-opacity="0.7"/>
</g>
<path d="M196.603 280.04C200.545 276.098 200.545 269.706 196.603 265.764C192.661 261.823 186.27 261.823 182.328 265.764C178.386 269.706 178.386 276.098 182.328 280.04C186.27 283.982 192.661 283.982 196.603 280.04Z" stroke="#263238" stroke-width="0.763323" stroke-linecap="round" stroke-linejoin="round"/>
<path d="M194.369 272.902L186.452 268.947V276.857L194.369 272.902Z" fill="#263238"/>
<path d="M145.271 214.557V203.245L143.892 202.307L142.513 203.245V214.557L143.892 215.502L145.271 214.557Z" fill="#263238"/>
<path d="M158.2 214.557L159.579 215.502L160.958 214.557V203.245L159.579 202.307L158.2 203.245V214.557Z" fill="#263238"/>
<path d="M159.628 216.972L158.249 217.917V229.229L159.628 230.167L161.007 229.229V217.917L159.628 216.972Z" fill="#263238"/>
<path d="M157.416 202.706L158.361 201.327L157.416 199.948H146.104L145.159 201.327L146.104 202.706H157.416Z" fill="#263238"/>
<path d="M146.104 214.858L145.159 216.237L146.104 217.616H157.416L158.361 216.237L157.416 214.858H146.104Z" fill="#263238"/>
<path d="M146.104 229.768L145.159 231.147L146.104 232.526H157.416L158.361 231.147L157.416 229.768H146.104Z" fill="#263238"/>
<path d="M170.723 214.557V203.245L169.344 202.307L167.965 203.245V214.557L169.344 215.502L170.723 214.557Z" fill="#263238"/>
<path d="M185.08 216.972L183.701 217.917V229.229L185.08 230.167L186.459 229.229V217.917L185.08 216.972Z" fill="#263238"/>
<path d="M182.868 202.706L183.813 201.327L182.868 199.948H171.556L170.611 201.327L171.556 202.706H182.868Z" fill="#263238"/>
<path d="M171.556 214.858L170.611 216.237L171.556 217.616H182.868L183.813 216.237L182.868 214.858H171.556Z" fill="#263238"/>
<path d="M171.556 229.768L170.611 231.147L171.556 232.526H182.868L183.813 231.147L182.868 229.768H171.556Z" fill="#263238"/>
<path d="M192.409 214.557V203.245L191.03 202.307L189.651 203.245V214.557L191.03 215.502L192.409 214.557Z" fill="#263238"/>
<path d="M192.458 217.917L191.079 216.972L189.7 217.917V229.229L191.079 230.167L192.458 229.229V217.917Z" fill="#263238"/>
<path d="M205.331 214.557L206.71 215.502L208.089 214.557V203.245L206.71 202.307L205.331 203.245V214.557Z" fill="#263238"/>
<path d="M206.759 216.972L205.38 217.917V229.229L206.759 230.167L208.138 229.229V217.917L206.759 216.972Z" fill="#263238"/>
<path d="M204.547 202.706L205.492 201.327L204.547 199.948H193.235L192.297 201.327L193.235 202.706H204.547Z" fill="#263238"/>
<path d="M193.235 229.768L192.297 231.147L193.235 232.526H204.547L205.492 231.147L204.547 229.768H193.235Z" fill="#263238"/>
<path d="M165.452 231.147H163.597V233.002H165.452V231.147Z" fill="#263238"/>
<path opacity="0.4" d="M187.943 183.309L149.534 246.526H140.7C139.958 246.526 139.222 246.38 138.537 246.095C137.851 245.811 137.228 245.394 136.703 244.869C136.178 244.344 135.762 243.72 135.479 243.034C135.196 242.348 135.05 241.612 135.051 240.87V189.434C135.05 188.63 135.208 187.834 135.515 187.091C135.822 186.348 136.272 185.672 136.84 185.103C137.409 184.535 138.083 184.083 138.826 183.775C139.569 183.467 140.365 183.309 141.169 183.309H187.943Z" fill="white"/>
<path d="M183.253 147.035V170.1H167.405V147.035C167.405 146.478 167.626 145.944 168.02 145.55C168.414 145.156 168.948 144.935 169.505 144.935H181.202C181.75 144.948 182.272 145.175 182.655 145.567C183.039 145.96 183.253 146.486 183.253 147.035Z" fill="white"/>
<mask id="mask14_3_9164" style="mask-type:luminance" maskUnits="userSpaceOnUse" x="167" y="144" width="17" height="27">
<path d="M183.253 147.035V170.1H167.405V147.035C167.405 146.478 167.626 145.944 168.02 145.55C168.414 145.156 168.948 144.935 169.505 144.935H181.202C181.75 144.948 182.272 145.175 182.655 145.567C183.039 145.96 183.253 146.486 183.253 147.035Z" fill="white"/>
</mask>
<g mask="url(#mask14_3_9164)">
<path opacity="0.4" d="M183.253 147.035V160.874H167.405V147.035C167.405 146.478 167.626 145.944 168.02 145.55C168.414 145.156 168.948 144.935 169.505 144.935H181.202C181.75 144.948 182.272 145.175 182.655 145.567C183.039 145.96 183.253 146.486 183.253 147.035Z" fill="#9A1115"/>
</g>
<path d="M183.253 147.035V170.1H167.405V147.035C167.405 146.478 167.626 145.944 168.02 145.55C168.414 145.156 168.948 144.935 169.505 144.935H181.202C181.75 144.948 182.272 145.175 182.655 145.567C183.039 145.96 183.253 146.486 183.253 147.035Z" stroke="#263238" stroke-width="0.763323" stroke-linecap="round" stroke-linejoin="round"/>
<path d="M160.538 170.072H190.113" stroke="#263238" stroke-width="0.763323" stroke-linecap="round" stroke-linejoin="round"/>
<path d="M175.329 138.691C175.329 138.691 183.785 154.189 175.329 154.189C166.873 154.189 175.329 138.691 175.329 138.691Z" fill="#9A1115" stroke="#263238" stroke-width="0.763323" stroke-linecap="round" stroke-linejoin="round"/>
<path d="M180.859 131.439C180.859 131.439 179.585 137.739 171.017 133.105C162.449 128.471 158.081 124.005 158.081 124.005C153.035 120.919 148.273 117.391 143.85 113.463L137.977 110.985C137.977 110.985 138.74 113.239 139.545 115.647C140.245 117.831 141.001 120.155 141.225 121.037C141.687 122.892 137.578 127.064 136.164 127.988C136.164 127.988 138.348 131.383 136.164 134.288C133.98 137.193 115.577 134.799 115.577 134.799C115.577 134.799 112.777 135.058 105.378 132.433C105.378 132.433 88.69 132.433 77.56 129.5C70.5526 127.595 63.7667 124.953 57.316 121.618C57.316 121.618 50.134 123.41 44.639 120.4C40.3115 120.277 35.9806 120.406 31.668 120.785C30.443 120.918 28.455 121.135 25.907 121.485C23.807 121.737 21.406 122.052 18.69 122.451L12.236 79.1C22.253 79.275 31.668 79.387 33.558 79.254C42.021 78.617 48.349 79.359 53.277 79.254C68.124 78.904 105.077 73.969 112.483 74.431C119.889 74.893 126.266 83.244 126.266 83.244L149.366 96.915L166.285 113.141C166.285 113.141 175.994 127.96 180.859 131.439Z" fill="white"/>
<path opacity="0.4" d="M141.225 121.009C141.687 122.864 137.578 127.036 136.164 127.96C136.164 127.96 138.348 131.355 136.164 134.26C133.98 137.165 115.577 134.771 115.577 134.771C115.577 134.771 112.777 135.03 105.378 132.405C105.378 132.405 88.69 132.405 77.56 129.472C70.5526 127.567 63.7667 124.925 57.316 121.59C57.316 121.59 50.134 123.41 44.639 120.4C40.3115 120.277 35.9806 120.406 31.668 120.785C30.443 120.918 28.455 121.135 25.907 121.485C29.2498 119.492 32.9802 118.236 36.848 117.803C36.848 117.803 29.239 107.1 31.668 99.26C31.668 99.26 34.468 110.992 44.366 115.101C54.264 119.21 77.378 104.3 77.378 104.3C77.378 104.3 83.818 107.317 86.436 105.105C89.054 102.893 86.919 109.186 88.921 111.636L89.432 110.096C89.348 110.523 88.676 114.296 90.615 115.094L91.378 113.47C91.378 113.47 94.374 122.682 96.544 125.37C98.714 128.058 109.403 129.465 110.404 127.652C111.405 125.839 106.274 102.452 106.134 101.808C106.365 102.095 110.096 106.799 110.446 109.235C110.796 111.671 114.086 127.169 114.954 128.835C115.822 130.501 121.891 131.411 124.103 128.835C124.103 128.835 120.316 106.148 120.267 104.118C120.218 102.088 122.948 103.201 123.011 106.771C123.074 110.341 127.715 115.598 130.13 119.819C132.545 124.04 139.44 123.662 141.225 121.009Z" fill="#9A1115"/>
<path opacity="0.4" d="M180.859 131.439C180.859 131.439 179.585 137.739 171.017 133.105C162.449 128.471 158.081 124.005 158.081 124.005C153.035 120.919 148.273 117.391 143.85 113.463L137.977 110.985C137.977 110.985 138.74 113.239 139.545 115.647C139.27 115.361 138.98 115.09 138.677 114.835C138.677 114.835 135.464 100.793 129.374 95.795C129.374 95.795 127.309 93.443 126.784 91.399C126.259 89.355 131.929 94.423 132.937 96.439C133.945 98.455 142.303 105.798 144.466 106.75C146.629 107.702 157.108 116.291 159.6 117.6C162.092 118.909 172.2 139.083 180.859 131.439Z" fill="#9A1115"/>
<path d="M12.236 79.1C22.246 79.275 31.668 79.387 33.551 79.247C42.021 78.624 48.349 79.359 53.284 79.247C68.124 78.904 105.084 73.969 112.483 74.431C119.882 74.893 126.266 83.244 126.266 83.244L149.366 96.915L166.285 113.141C166.285 113.141 176.022 127.974 180.887 131.453C180.887 131.453 179.62 137.753 171.038 133.119C162.456 128.485 158.116 124.019 158.116 124.019C153.067 120.934 148.302 117.406 143.878 113.477L138.005 111.006C138.005 111.006 140.805 119.196 141.253 121.051C141.701 122.906 137.606 127.078 136.185 128.002C136.185 128.002 138.383 131.404 136.185 134.302C133.987 137.2 115.605 134.813 115.605 134.813C115.605 134.813 112.805 135.072 105.406 132.447C105.406 132.447 88.718 132.447 77.588 129.514C70.5825 127.61 63.7989 124.968 57.351 121.632C57.351 121.632 50.134 123.41 44.639 120.4C40.3117 120.273 35.9806 120.4 31.668 120.778C29.449 121.016 24.738 121.541 18.69 122.43" stroke="#263238" stroke-width="0.763323" stroke-linecap="round" stroke-linejoin="round"/>
<path d="M126.266 89.334C126.266 89.334 126.266 91.028 128.247 94.122C130.228 97.216 135.632 103.873 137.977 110.964" stroke="#263238" stroke-width="0.763323" stroke-linecap="round" stroke-linejoin="round"/>
<path d="M120.4 99.218C120.231 101.165 120.231 103.123 120.4 105.07C120.708 107.408 123.956 124.873 124.11 127.19C124.264 129.507 123.9 134.4 115.577 134.806" stroke="#263238" stroke-width="0.763323" stroke-linecap="round" stroke-linejoin="round"/>
<path d="M105.532 97.678C105.703 99.7461 106.064 101.794 106.61 103.796C107.541 107.254 110.81 123.599 110.404 127.596C109.998 131.593 105.378 132.419 105.378 132.419" stroke="#263238" stroke-width="0.763323" stroke-linecap="round" stroke-linejoin="round"/>
<path d="M64.89 119C71.2217 118.923 77.3594 116.805 82.39 112.959" stroke="#263238" stroke-width="0.763323" stroke-linecap="round" stroke-linejoin="round"/>
<path d="M79.877 108.5C79.877 108.5 80.038 112.826 88.844 117.768" stroke="#263238" stroke-width="0.763323" stroke-linecap="round" stroke-linejoin="round"/>
<path d="M92.862 111.734C92.862 111.734 88.067 116.529 88.844 119.77C89.621 123.011 92.862 126.105 92.862 126.105" stroke="#263238" stroke-width="0.763323" stroke-linecap="round" stroke-linejoin="round"/>
<path d="M84.7 115.059C83.9556 116.328 83.3165 117.655 82.789 119.028C82.173 120.806 80.689 126.567 82.74 128.128C84.791 129.689 90.321 131.068 99.491 132.328" stroke="#263238" stroke-width="0.763323" stroke-linecap="round" stroke-linejoin="round"/>
<path d="M88.844 119.77C88.844 119.77 86.212 122.087 85.596 124.404" stroke="#263238" stroke-width="0.763323" stroke-linecap="round" stroke-linejoin="round"/>
<path d="M90.811 106.729C89.5458 109.378 88.6237 112.177 88.067 115.059" stroke="#263238" stroke-width="0.763323" stroke-linecap="round" stroke-linejoin="round"/>
<path d="M123.011 120.358C123.011 120.358 126.7 124.25 130.564 125.335" stroke="#263238" stroke-width="0.763323" stroke-linecap="round" stroke-linejoin="round"/>
<path d="M136.157 127.96C136.157 127.96 131.999 129.815 124.096 127.96" stroke="#263238" stroke-width="0.763323" stroke-linecap="round" stroke-linejoin="round"/>
<path d="M79.877 118.111C79.877 118.111 82.677 116.011 83.713 114.219" stroke="#263238" stroke-width="0.763323" stroke-linecap="round" stroke-linejoin="round"/>
<path d="M107.1 77.588C113.281 79.289 113.904 80.675 114.982 85.47" stroke="#263238" stroke-width="0.763323" stroke-linecap="round" stroke-linejoin="round"/>
<path d="M90.811 84.231C96.565 85.631 96.411 87.787 97.342 90.258" stroke="#263238" stroke-width="0.763323" stroke-linecap="round" stroke-linejoin="round"/>
<path d="M143.85 113.435C144.197 112.557 144.611 111.708 145.089 110.894" stroke="#263238" stroke-width="0.763323" stroke-linecap="round" stroke-linejoin="round"/>
<path d="M158.088 123.977C158.088 123.977 160.23 123.76 161.154 122.843" stroke="#263238" stroke-width="0.763323" stroke-linecap="round" stroke-linejoin="round"/>
<path d="M31.668 101.381C31.668 101.381 33.369 112.854 42 117.012" stroke="#263238" stroke-width="0.763323" stroke-linecap="round" stroke-linejoin="round"/>
</svg>
